<?xml version="1.0" encoding="UTF-8"?>
<svg id="Layer_1" data-name="Layer 1" xmlns="http://www.w3.org/2000/svg" xmlns:xlink="http://www.w3.org/1999/xlink" viewBox="0 0 512.01 263.82">
  <defs>
    <style>
      .cls-1 {
        fill: #297fc3;
      }

      .cls-2 {
        fill: #c9e5f8;
      }

      .cls-3 {
        fill: #6790ae;
      }

      .cls-4 {
        fill: #b3b3c1;
      }

      .cls-5 {
        fill: #6d7eb2;
      }

      .cls-6 {
        fill: #8da0be;
      }

      .cls-7 {
        fill: #1b60aa;
      }

      .cls-8 {
        fill: #81a4d1;
      }

      .cls-9 {
        fill: #7a8daf;
      }

      .cls-10 {
        fill: #7ab2e0;
      }

      .cls-11 {
        fill: url(#linear-gradient-3);
      }

      .cls-12 {
        fill: url(#linear-gradient-2);
      }

      .cls-13 {
        fill: #e3f4fa;
      }

      .cls-14 {
        fill: #5ca2d5;
      }

      .cls-15 {
        fill: #446b92;
      }

      .cls-16 {
        fill: #c6c3c2;
      }

      .cls-17 {
        fill: url(#linear-gradient);
      }

      .cls-18 {
        fill: #3a6cb4;
      }

      .cls-19 {
        fill: #2653a5;
      }

      .cls-20 {
        fill: #4590c2;
      }

      .cls-21 {
        fill: #e3e3dd;
      }

      .cls-22 {
        fill: #5ca7c3;
      }

      .cls-23 {
        fill: #aa967d;
      }

      .cls-24 {
        fill: #aaa4a1;
      }

      .cls-25 {
        fill: #d3d6db;
      }

      .cls-26 {
        fill: #a9e0f8;
      }

      .cls-27 {
        fill: #294d7d;
      }

      .cls-28 {
        fill: #caaa91;
      }

      .cls-29 {
        fill: #cdc375;
      }

      .cls-30 {
        fill: #5ab9e8;
      }

      .cls-31 {
        fill: #203b71;
      }

      .cls-32 {
        fill: #c6d3e7;
      }

      .cls-33 {
        fill: #dce1c6;
      }

      .cls-34 {
        fill: #b0d3f0;
      }

      .cls-35 {
        fill: #dce8a4;
      }

      .cls-36 {
        fill: #7ab5ba;
      }

      .cls-37 {
        fill: #f3f4f6;
      }

      .cls-38 {
        fill: #6c96ce;
      }

      .cls-39 {
        fill: #1e9bd2;
      }

      .cls-40 {
        fill: #b59684;
      }

      .cls-41 {
        fill: #a2b4d3;
      }

      .cls-42 {
        fill: #c8eaf6;
      }

      .cls-43 {
        fill: #72cfeb;
      }

      .cls-44 {
        fill: #5e84c3;
      }

      .cls-45 {
        fill: #627b99;
      }

      .cls-46 {
        fill: #9d9fb6;
      }

      .cls-47 {
        fill: #7fcbf1;
      }

      .cls-48 {
        fill: #29729e;
      }
    </style>
    <linearGradient id="linear-gradient" x1="287.07" y1="182.98" x2="273.9" y2="165.1" gradientTransform="translate(0 269.36) scale(1 -1)" gradientUnits="userSpaceOnUse">
      <stop offset="0" stop-color="#166398"/>
      <stop offset="1" stop-color="#1a3d6c"/>
    </linearGradient>
    <linearGradient id="linear-gradient-2" x1="252.13" y1="204.94" x2="254.99" y2="157.58" gradientTransform="translate(0 269.36) scale(1 -1)" gradientUnits="userSpaceOnUse">
      <stop offset="0" stop-color="#38abe1"/>
      <stop offset="1" stop-color="#1e78ab"/>
    </linearGradient>
    <linearGradient id="linear-gradient-3" x1="116.28" y1="174.6" x2="405.33" y2="96.86" gradientTransform="translate(0 269.36) scale(1 -1)" gradientUnits="userSpaceOnUse">
      <stop offset="0" stop-color="#307eb8"/>
      <stop offset="1" stop-color="#1a3764"/>
    </linearGradient>
  </defs>
  <g id="Generative_Object" data-name="Generative Object">
    <g>
      <path class="cls-7" d="M427.72,235.79l-.5.5c-2.86-.83-8.66.59-12.11,1.01,4.87-2.96,8.22-2.63,7.07-9.59.44-.24.97-1.61,2.52-2.02l.76,4.54c.73-.99.44-3.8.76-4.54.8-1.88,7.7-4.95,8.08-3.79.55,7.04-.48,10.14-8.08,10.1-.29,2.17.09,2.45,1.51,3.79h-.01Z"/>
      <path class="cls-27" d="M434.78,214.09c.83,1.83-.11,4.37-1.26,6.06l-25.74,12.62-24.73-12.62c-.79-2.91-2.03-4.34.25-6.56-1.28,5.57.68,5.37,4.8,7.57,3.38,1.8,9.7,4.26,14.13,6.56.54.28,3.29,3.46,3.53,3.53.32.09,6.07-1.29,6.56-1.51.3-.13,3.7-3.37,5.05-4.04,6.15-3.06,13.98-5.09,17.41-11.61h0Z"/>
      <path class="cls-44" d="M422.16,227.72c1.15,6.96-2.19,6.63-7.07,9.59-.05,0-.43-.06-1.01,0-1.19.11-4.13,1.83-5.3,1.01-.42-.29-.02-3.24-1.26-4.54,4.66-1.39,10.4-3.75,14.64-6.06h0Z"/>
      <path class="cls-18" d="M407.53,233.77c1.24,1.3.84,4.25,1.26,4.54,1.17.82,4.11-.9,5.3-1.01-2.44,4.43-9.63,1.43-13.12-.5-.2-.11-2.76-2.62-3.28-3.03-.05-.04-.66,1.04-1.26.25-.86-1.13-.09-4.33-.5-5.8,1.65.81,11.17,5.09,11.61,5.55h-.01Z"/>
      <path class="cls-44" d="M391.37,226.71c.05.15-.04.35,0,.5.11.46.41,4.88-.25,5.05-6.68-1.28-8.69-2.44-7.82-9.84.74-1.1,7.4,2.04,8.08,4.29h-.01Z"/>
      <path class="cls-14" d="M426.2,225.7c-.32.74-.02,3.55-.76,4.54l-.76-4.54c.42-.11,1.04.07,1.51,0h.01Z"/>
      <g>
        <path class="cls-7" d="M434.78,214.09c-3.44,6.52-11.26,8.55-17.41,11.61-1.35.67-4.75,3.91-5.05,4.04-.49.22-6.24,1.61-6.56,1.51-.24-.07-3-3.25-3.53-3.53-4.43-2.3-10.76-4.76-14.13-6.56-4.12-2.2-6.07-2-4.8-7.57,4.05-3.94,17.26-8.9,22.97-10.1l-9.34,7.32c1.52,4.61,8.5,7.95,12.87,8.33-1.33-.87-10.23-5.08-10.6-5.55-2.97-3.85,7.51-9.04,10.6-8.58.55.08,9.64,4.78,9.84,5.3,1.76,4.53-7.43,5.17-8.83,8.83,13.96-6.51,12.67-8.28,0-15.14h6.06c2.68,3.02,16.64,7.26,17.92,10.1h0Z"/>
        <path class="cls-13" d="M405.76,207.02c3.76-.67,7.38.85,9.84,3.79-.31,3.01-15.52,5.79-13.38.25,3.66,5.4,4.97-.61,5.55-1.01.06-.04.95,1.05,1.01,1.01.4-.24,1.97-4.03,2.02-.5l-3.28,2.27c.88,2.19,6.55-1.4,6.56-2.02-3.1-3.82-8.56-3.52-11.86-.25-2.04-.91,3.01-3.44,3.53-3.53h0Z"/>
        <path class="cls-43" d="M403.74,210.55c.13-.06,2.19.72,2.78.76-.02.73-4.6.15-2.78-.76h0Z"/>
      </g>
    </g>
    <g>
      <path class="cls-30" d="M61.77,102.03c-.5-.12-1.36.44-3.03-.5-.07-.04-1.34-1.55-1.51-.5-1-.53-8.35-4.01-8.83-4.04-.63-.04-11.09,4.68-11.61,5.05s-3.14,2.74-3.28,3.53c.14.71,12.15,6.63,12.87,6.56,2.21-.2,11.35-6.65,13.88-8.08.1,1.18,1.34,1.4,1.51,2.27.4,2.08-.46,4.8.5,7.07l-1.51.5c.75-14.24-7.07-4.51-3.53,2.78-1.84.89-9.55,5.24-10.85,5.05-7.33-6.37-19.7-8.71-24.99-16.66.58-1.03,14.89-7.99,17.16-9.09v1.77c8.36-7.58,15.74-.99,23.22,4.29h0Z"/>
      <path class="cls-27" d="M21.39,105.06c5.29,7.95,17.65,10.28,24.99,16.66,1.3.19,9.01-4.15,10.85-5.05,3.15-1.53,6.14-3.16,9.09-5.05,2.09-1.35,6.84-2.28,5.55-5.8-.5-1.36-8.37-3.38-10.1-3.79-7.48-5.28-14.86-11.87-23.22-4.29v-1.77c1.3-.62,5.22-3.82,6.31-4.04,5.69-1.13,20.77,10.95,27.26,12.62,1.41,1.78.8,6.21-1.01,7.57l-24.73,11.61-24.23-12.62c-.8-1.87-1.86-4.11-.76-6.06h0Z"/>
      <path class="cls-28" d="M47.64,125.25c-.3.88.21,2.94,0,4.04-8.15,0-7.73-2.45-14.13-4.04-.74-2.52-.69-4.43-.5-7.07,5,2.16,9.9,4.32,14.64,7.07h-.01Z"/>
      <path class="cls-16" d="M59.25,126.26c-1.92-.23-4.3,2.08-6.06,2.52-3.26.82-2.52.51-5.55.5.21-1.09-.3-3.16,0-4.04.78-2.29,10.79-5.14,12.87-7.07,1.06,3.14-.4,5.25-1.26,8.08h0Z"/>
      <path class="cls-33" d="M21.64,112.13c.51-.4,7.51,3.12,7.82,4.29.13.48-.54,5.14-.76,5.3s-5.3.11-5.55,0c-1.79-.74-1.54-7.41-1.51-9.59Z"/>
      <path class="cls-1" d="M33,118.18c-.19,2.64-.24,4.55.5,7.07-.15-.04-1.91.11-3.03,0-1.3-.12-3.28,1.2-3.03-1.51,3.93-2.17,1.74-7.13,3.28-7.57.17-.05,1.89,1.85,2.27,2.02h.01Z"/>
      <path class="cls-14" d="M66.31,111.62c-2.95,1.89-5.94,3.52-9.09,5.05-3.53-7.29,4.29-17.01,3.53-2.78l1.51-.5c-.97-2.26-.1-4.98-.5-7.07-.17-.87-1.41-1.09-1.51-2.27-.03-.33.01-.68,0-1.01.96.62,3.77.95,4.54,2.78.42,1.01-.51,5.16,1.51,5.8h.01Z"/>
      <path class="cls-1" d="M61.77,102.03c1.72.41,9.6,2.43,10.1,3.79,1.29,3.52-3.46,4.46-5.55,5.8-2.02-.65-1.09-4.8-1.51-5.8-.77-1.83-3.58-2.16-4.54-2.78-.78-.5-1.42-1.46-1.51-1.51,1.67.95,2.53.39,3.03.5h-.02Z"/>
      <g>
        <path class="cls-47" d="M57.23,101.02c.34.18.72.34,1.01.5.26,1.46-.28,1.39-1.26,2.02-1.31.84-12.39,6.56-13.12,6.56-2.39,0-7.24-5.05-10.35-4.54.14-.8,2.77-3.17,3.28-3.53s10.98-5.09,11.61-5.05c.48.03,7.83,3.51,8.83,4.04h0Z"/>
        <path class="cls-2" d="M60.26,103.04c.01.33-.03.68,0,1.01-2.53,1.42-11.67,7.88-13.88,8.08-.72.06-12.73-5.85-12.87-6.56,3.11-.51,7.96,4.54,10.35,4.54.73,0,11.82-5.72,13.12-6.56.98-.63,1.52-.56,1.26-2.02.13.07.38-.07.5,0,.09.05.74,1.02,1.51,1.51h.01Z"/>
        <path class="cls-27" d="M58.74,101.53c-.13-.07-.38.07-.5,0-.29-.16-.67-.32-1.01-.5.18-1.04,1.44.47,1.51.5Z"/>
      </g>
    </g>
    <g>
      <path class="cls-25" d="M477.69,127.77c3.28-.63,9.88-3.08,12.11-3.03,2.51.06,19.84,8.2,22.21,10.1-.32-.04-.75.07-1.01,0-1.23-.35-2.39-1.23-3.79-1.01-.96,1.61,2.23.62,2.27,1.77.03.79-3.98,1.2-2.52,2.78-1.69.98-3.35,1.63-5.05,2.52-1.53-1.87-5.28,2.83-5.55,3.03-3.77,2.66-8.05,4.11-11.61,7.07-2.6-4.14-5.13-3.55-8.83-5.55-8.77-4.74-17.54-9.59-25.99-14.89,2.29-.61,8.92-5.72,10.6-5.8,1.2-.06,7.3,3.73,8.83,4.04,3.65.74,5.26-.42,8.33-1.01v-.02Z"/>
      <path class="cls-14" d="M456.99,116.67c.7.33,1.7.63,2.52,1.01l1.01,7.07c-1.68.08-8.31,5.2-10.6,5.8,8.45,5.3,17.22,10.15,25.99,14.89,3.7,2,6.24,1.41,8.83,5.55-.23.19-1.23,3.98-4.29,2.02-2.31-1.85,0-3.69-2.02-5.55-4.94-4.56-22.18-9.78-28.27-15.14-1.51-1.33-2.74-3.03-1.77-5.05.65-1.34,4.96-2.76,6.56-4.54,2.55-2.85-.51-4.45,2.02-6.06h.02Z"/>
      <path class="cls-10" d="M511,134.84c.38,2.19-2.48,2.63-4.04,3.53-1.46-1.58,2.56-1.99,2.52-2.78-.05-1.14-3.23-.15-2.27-1.77,1.4-.23,2.56.66,3.79,1.01h0Z"/>
      <path class="cls-34" d="M501.92,140.9c-1.83.96-3.53,2.4-5.55,3.03.27-.19,4.03-4.9,5.55-3.03Z"/>
      <g>
        <path class="cls-47" d="M497.88,107.58c-3.76-.38-7.73,2.79-11.1,4.54l-3.53-7.57c8.65-5.18-8.17-9.34-11.1-8.08-1.33.57-.78.95-1.01,2.02-.96-.76-1.54-.24-2.52,0l-.76-4.54c-2.51,1.03-4.9,2.33-7.32,3.53l-.5-1.01c3.93-1.98,8.67-6.78,13.38-6.06,1.28.2,22.2,10.81,23.22,11.61,1.98,1.55,2.1,3.14,1.26,5.55h-.02Z"/>
        <path class="cls-44" d="M477.69,127.77c-3.07.59-4.67,1.74-8.33,1.01-1.53-.31-7.63-4.1-8.83-4.04l-1.01-7.07c2.74,1.27,10.33,5.83,12.87,5.55.81-.09,12.21-6.55,14.39-7.57,1.22,4.89-.76,5.19-3.53,7.82-.15.14.45,1.42-.76,2.27-1.43,1.02-3.89.11-4.8,2.02h0Z"/>
        <path class="cls-1" d="M460.02,96.48l.5,1.01c-4.53,2.25-8.78,5.14-13.63,6.81-.23.53.2,1.99.5,2.52.66,1.18,22.13,13.21,23.47,13.38,1.15.15,13.7-6.94,15.9-8.08,3.38-1.75,7.35-4.92,11.1-4.54-.34.99-.96,1.85-1.77,2.52l-25.24,12.11c-3.26-2.34-23.87-11.13-24.48-13.38-.65-2.41-.17-4.77,1.51-6.31.46-.42,4.95-2.88,6.06-3.53,1.55-.91,4.38-1.68,6.06-2.52h.02Z"/>
        <path class="cls-18" d="M491.32,122.73c-.28.81-.47,2.27-1.51,2.02-2.23-.05-8.84,2.4-12.11,3.03.9-1.91,3.36-1,4.8-2.02,1.21-.86.61-2.13.76-2.27,2.77-2.63,4.75-2.93,3.53-7.82,1-.47,10.63-5.8,11.1-4.29.18,1.44-.29,6.57-1.01,7.57-1.32,1.83-5.22,1.43-5.8,1.77-.88.51.32,1.82.25,2.02h-.01Z"/>
        <path class="cls-38" d="M456.99,116.67c-2.53,1.61.53,3.2-2.02,6.06-1.18-3.1-6.27-1.19-7.57-3.03-.46-.66-.73-6.41-.25-7.57,1.16-.95,8.44,3.87,9.84,4.54Z"/>
        <path class="cls-30" d="M468.6,98.5c-1.46.36-6.75,2.44-7.07,3.79-.58,2.47,3.39,2.35,5.05,2.78,5.14,1.33,8.44,1.74,13.12.5.82-.21,3-.69,3.53-1.01l3.53,7.57c-2.2,1.14-14.75,8.22-15.9,8.08-1.34-.17-22.81-12.2-23.47-13.38-.3-.53-.74-1.99-.5-2.52,4.85-1.67,9.1-4.57,13.63-6.81,2.42-1.2,4.81-2.51,7.32-3.53l.76,4.54h0Z"/>
        <path class="cls-26" d="M483.24,104.56c-.54.32-2.72.79-3.53,1.01l2.78-3.03c-1.5,1.48-10.53,2.07-10.85,1.26-.76-1.93.76-5.26.5-7.32,2.94-1.26,19.76,2.9,11.1,8.08Z"/>
        <path class="cls-43" d="M471.13,98.5c-.97,4.51,1.84,5.32-5.05,4.8l4.04,1.51-3.53.25c-1.65-.43-5.63-.3-5.05-2.78.32-1.34,5.61-3.43,7.07-3.79.99-.24,1.57-.76,2.52,0h0Z"/>
        <path class="cls-2" d="M472.14,96.48c.25,2.06-1.27,5.39-.5,7.32.32.81,9.36.21,10.85-1.26l-2.78,3.03c-4.69,1.23-7.99.82-13.12-.5l3.53-.25-4.04-1.51c6.89.53,4.08-.29,5.05-4.8.23-1.07-.32-1.45,1.01-2.02h0Z"/>
      </g>
    </g>
    <g>
      <path class="cls-1" d="M102.66,118.18c-2.5-3.11-3.48-5.97,1.01-7.57.76.19,1.83-.1,2.78.5.73-.23,1.37-1.95,1.51-2.02,7.49-3.6,19.45-11.65,26.5-13.63.54-.15.68-.37,1.51-.5,2.13-.33,3.88-1.15,5.55.76.08.21.09,3.77,0,4.04s-4.51,3.22-4.8,3.28c-4.96,1-5.41-4.46-7.07-4.54-1.44-.07-17.14,11.05-20.69,11.1-.65,1.63,2.17.59,2.78,2.27,1.71,4.77-5.08,7.78-9.09,6.31h0Z"/>
      <path class="cls-2" d="M77.42,95.98c-.04.32.07.94,0,1.01-2.54,2.73.58,1.41.76,1.51.29.17.37,1.34,1.01,1.51.21.06,1.95-1.22,4.04-.5,4.93,1.69,15.95,9.96,20.44,11.1-4.49,1.6-3.51,4.46-1.01,7.57-2.5-.92-2.44-1.81-3.53-4.04-.05-.11,1.65-1.54-1.01-.5-3.3-3.17-8.14-3.76-11.86-6.06-1.21-.75,1.16-1.09.5-1.51-1.59-1.04-5.22-1.98-6.56-3.03-1.16-.91.15-1.11-1.01-2.02s-2.28-1.01-3.79-2.52c-.11-.11-.14-3.54-.5,0-.3.22-2.69,1.13-2.78,1.01-1.68-2.44,4.56-3.17,5.3-3.53h0Z"/>
      <path class="cls-38" d="M126.38,89.41l9.59,5.55c-.83.13-.97.35-1.51.5-2.47-1.41-5.94-3.88-8.83-4.04-.66-.04-11.32,2.21-12.62,2.52-3.21.79-1.05,2.78-8.33,2.02l9.34-2.52c1.63-1.39,6.41-2.67,7.32-4.54,1.07,2.38,3.45,1.79,5.05.5h-.01Z"/>
      <path class="cls-10" d="M99.63,93.96s.59-.08.5.5c-1.77-.33-11.72-3.09-12.37-3.03-.86.08-8.13,5.73-10.35,5.55.07-.07-.04-.69,0-1.01,3.97-1.94,8.08-3.86,11.61-6.56l10.6,4.54h.01Z"/>
      <path class="cls-14" d="M75.4,98.5h-.5c.37-3.54.4-.11.5,0Z"/>
      <g>
        <path class="cls-30" d="M132.94,70.74c-.16.34.05.88-.5,2.02l-24.99,14.13c-2.04.12-10.12-5.84-12.37-7.07-.13-2.23,3.48-3.95,4.04-4.8.51-.76-2.39-1.43.5-2.27,1.06.57,1.97,1.23,3.28,1.01-5.88-3.73,4.08.51,6.06.5.71,0,2.57-.85,3.28-1.01,5.97-1.31,10.95-4.04,3.53-8.08-.09-1.51,4.13,1.04,3.03-1.51,1.05.51,7.4,3.56,7.82,3.53,1.27-.09,11.26-7.3,13.88-8.08.8-.24.66-.86,1.51.25l-14.13,8.08,5.05,3.28v.02Z"/>
        <path class="cls-47" d="M118.81,63.67c1.1,2.55-3.12,0-3.03,1.51-2.93-1.59-7.1-2.95-10.1-1.51-.9.43-1.25.58-1.51,1.51-1.34-.98-13.85,4.77-9.34,6.56,1.09.02,1.57-.55,2.78-.5.8.18,1.87,1.44,2.02,1.51-2.9.84,0,1.51-.5,2.27-.56.84-4.16,2.56-4.04,4.8-4.12-2.25-12.83-4.38-13.63-9.59.64-1.21,22.62-12.98,23.98-13.12,3.53-.38,10.05,4.95,13.38,6.56h-.01Z"/>
        <path class="cls-4" d="M121.84,82.85c-.12,1.89.35,4.3-.5,6.06-.91,1.88-5.69,3.15-7.32,4.54l-9.34,2.52c-1.08-.11-2.87-1.2-4.54-1.51.09-.58-.49-.47-.5-.5-1.61-3.47-5-1.61-7.07-6.06-.11-.23-1.02-4.88-.76-5.05,4.58.96,11.74,7.65,16.15,7.07,1.15-.15,11.7-6,13.88-7.07Z"/>
        <path class="cls-1" d="M95.08,79.82c2.24,1.23,10.33,7.19,12.37,7.07l24.99-14.13c-.56,1.16.62,2.58-1.77,4.54-.98.81-21.46,11.4-22.71,11.61-3,.49-17.23-8.73-20.95-10.6-1.64-.83-3.35-1.35-5.05-2.02,0-1.65-2.08-3.09-.5-6.06.79,5.21,9.5,7.34,13.63,9.59h0Z"/>
        <path class="cls-7" d="M126.38,89.41c-1.59,1.29-3.97,1.88-5.05-.5.85-1.76.39-4.16.5-6.06.71-.34,1.61-1.08,2.52-1.51,1.94,2.92,3.11,1.91,3.79,5.05,2.99-1.54,3.02-4.83,2.27-7.57.08-.02.97-1.22,1.51-.76-.12,1.71.24,5.64-.5,7.07-1.08,2.08-3.84,1.47-4.29,1.77-1.24.81-.61,2.4-.76,2.52h0Z"/>
        <path class="cls-21" d="M87.01,78.31c2.35,2.33-.56,6.71-3.53,7.07-.16.02-.34,0-.5,0-3.45-3.83-1-5.59-1.01-9.09,1.7.67,3.4,1.19,5.05,2.02h0Z"/>
        <path class="cls-18" d="M130.42,78.81c.75,2.74.71,6.03-2.27,7.57-.68-3.14-1.85-2.13-3.79-5.05,2.17-1.02,3.66-1.86,6.06-2.52h0Z"/>
        <path class="cls-14" d="M92.56,87.9c2.07,4.45,5.46,2.59,7.07,6.06l-10.6-4.54c.64-.49.68-4.25,3.53-1.51h0Z"/>
        <path class="cls-1" d="M82.97,85.38c.17,0,.34.02.5,0,5.63,4.35-4.37,2.46-2.52-.76.57-.99,1.45.79,2.02.76Z"/>
        <path class="cls-26" d="M115.78,65.19c7.42,4.03,2.43,6.76-3.53,8.08-1.17-2.89,5.05-2.11,5.55-4.8-4.75,1.2-7.67,3.81-12.87,3.28l.76-8.08c3-1.44,7.17-.08,10.1,1.51h0Z"/>
        <path class="cls-2" d="M105.68,63.67l-.76,8.08c5.21.53,8.12-2.08,12.87-3.28-.5,2.69-6.73,1.91-5.55,4.8-.71.16-2.57,1.01-3.28,1.01-1.98,0-11.94-4.24-6.06-.5-1.31.22-2.22-.44-3.28-1.01-.15-.08-1.22-1.33-2.02-1.51,9.32.36,4.82.17,6.56-6.06.26-.93.61-1.08,1.51-1.51v-.02Z"/>
        <path class="cls-43" d="M104.17,65.19c-1.74,6.22,2.76,6.41-6.56,6.06-1.21-.05-1.68.52-2.78.5-4.51-1.79,7.99-7.54,9.34-6.56Z"/>
      </g>
      <path class="cls-32" d="M100.13,94.46c1.67.31,3.46,1.4,4.54,1.51,7.28.76,5.12-1.23,8.33-2.02,1.3-.32,11.96-2.56,12.62-2.52,2.89.16,6.37,2.63,8.83,4.04-7.05,1.98-19.01,10.03-26.5,13.63-.15.07-.78,1.79-1.51,2.02-.95-.61-2.01-.31-2.78-.5-4.49-1.15-15.52-9.42-20.44-11.1-2.09-.71-3.83.56-4.04.5-.63-.17-.72-1.35-1.01-1.51-.18-.1-3.29,1.21-.76-1.51,2.21.18,9.48-5.47,10.35-5.55.65-.06,10.59,2.7,12.37,3.03v-.02Z"/>
    </g>
    <g>
      <path class="cls-32" d="M400.96,91.43c5.96,5.57,11.04,3.24,18.17,2.52.19-.02,1.54,1.26,3.79,1.01,5.52-.62,6.54-4.39,13.38,1.01-8.28,2.15-16.95,14.56-26.75,12.11-7.33-3.54-14.53-7.32-21.45-11.61l.76,2.02c-.54-.37-.41,1.01-2.02-2.02-.26-.49-1.54-2.14-1.51-2.27.08-.44,7.38-4.37,7.82-4.29.12.02.84,1.89,1.51,2.02.38.07,5.89.41,6.31-.5h-.01Z"/>
      <path class="cls-14" d="M427.21,91.43c1.25-.14,4.33.16,5.55.5,1.97.56,11.77,5.27,11.61,6.31l-25.74,14.64c.16,1.48,23.08,11.81,26.25,13.88.56.37,2.63,1.6,2.52,2.27l-9.84,5.3c.09-2.56,8.95-3.85,7.07-6.06-5.71-1.62-21.73-13.66-26.25-14.13-.92-.1-1.52,1.58-2.78,1.01.05-.14.52-2.88.5-3.03l25.49-13.63c2.54-1.79-4.14-2.83-5.3-2.52-6.83-5.4-7.86-1.63-13.38-1.01-2.25.25-3.59-1.03-3.79-1.01v-.5c2.74.21,5.58-1.74,8.08-2.02h.01Z"/>
      <path class="cls-1" d="M398.95,83.86c-.64,1.84-.89,5.55.25,7.07.06.07,1.14-.08,1.77.5-.42.91-5.93.58-6.31.5-.68-.13-1.39-2-1.51-2.02-.44-.08-7.74,3.85-7.82,4.29-.03.13,1.25,1.78,1.51,2.27.19,10.26-13.87,4.99-11.1-1.26.64-1.45,7.04-.85,8.33-1.26.85-.27,4.63-2.86,5.8-3.53,2-1.14,5.29-1.75,6.06-4.54.26-.94-.4-3.44-.25-3.53,1.42-.22,2.21,1.04,3.28,1.51h-.01Z"/>
      <path class="cls-1" d="M409.55,108.09c2.96,1.43,6.17.61,6.56,4.04.02.15-.45,2.88-.5,3.03-3.18,8.39-16.89-2.64-5.05-4.8.18-1.22-19.32-10.23-21.7-11.86l-.76-2.02c6.92,4.29,14.12,8.07,21.45,11.61h0Z"/>
      <path class="cls-48" d="M428.22,83.36c-.46,2.21-.32,2.8,1.51,3.03,1.18.15,1.04-.48,1.51-1.01.36-.39.57-.89,1.01-1.01.21,1.1-.46,2,.5,3.03.92.98,20.53,7.79,21.2,10.1-8.34-1.69-15.1-9.21-23.72-8.83.32,2.03,1.01,2.21,2.52,3.28-1.22-.35-4.3-.64-5.55-.5l-1.51-2.02c1.01-1.19,1.44-5,.5-6.56,1.01-.34,2.09-1.31,2.02.5h.01Z"/>
      <path class="cls-2" d="M416.11,112.13c-.39-3.43-3.6-2.61-6.56-4.04,9.81,2.44,18.47-9.97,26.75-12.11,1.16-.3,7.84.74,5.3,2.52l-25.49,13.63Z"/>
      <g>
        <path class="cls-47" d="M437.81,73.26c-5.95,2.91-11.7,6.2-17.67,9.09l-3.53-7.57c.85-.36,7.98-4.8,8.08-5.3.37-2.01-9.66-6.4-10.85-6.31-.95.07-3.95,2.87-4.54,3.03-1.58.42-3.25-1.37-6.31.5.55-1.74.78-2.09-.5-3.53.27-.23,1.44-1.34.5-1.51,3.47-1.71,6.66-5.19,10.85-4.54,1.29.2,22.38,11.11,23.22,12.11,1.05,1.25.91,2.58.76,4.04h0Z"/>
        <path class="cls-28" d="M425.7,89.41c-1.17,1.38-5.44,2.21-6.56,4.04v.5c-7.13.72-12.21,3.04-18.17-2.52-.62-.58-1.71-.43-1.77-.5-1.14-1.52-.89-5.22-.25-7.07,2.13.94,10.73,5.92,11.86,6.06,3.61.44,11.54-5.77,15.39-7.07.94,1.56.5,5.37-.5,6.56h0Z"/>
        <path class="cls-1" d="M387.34,72.25c.24.21,1.07,2.16,2.27,3.03,1.75,1.26,20.47,11.55,21.7,11.61,1.42.06,7.14-3.72,8.83-4.54,5.97-2.89,11.72-6.17,17.67-9.09-.49,4.6-5.06,4.2-8.33,6.06-5.56,3.16-11.23,6.21-16.66,9.59h-2.02l-23.22-12.11-1.26-5.05c.08.08.91.41,1.01.5h.01Z"/>
        <path class="cls-35" d="M395.92,85.88c-.77,2.79-4.06,3.4-6.06,4.54l2.02-2.27c-4.79-1.05-4.65-5.47-4.29-9.84.99-.81,6.65,3.38,7.07,4.04.74,1.15-.65,3.54,1.26,3.53h0Z"/>
        <path class="cls-23" d="M432.76,87.39c-.97-1.03-.29-1.93-.5-3.03-.25-1.31-.26-3.16-.5-4.54.27-.17,5.41-2.03,5.55-1.77-.1,4.26.2,7.92-4.54,9.34h-.01Z"/>
        <path class="cls-36" d="M432.26,84.37c-.44.12-.65.62-1.01,1.01-1.55-.4-2.7-1.09-1.51,1.01-1.83-.23-1.98-.81-1.51-3.03.15-.72,2.6-2.97,3.53-3.53.24,1.39.25,3.23.5,4.54h0Z"/>
        <path class="cls-30" d="M402.98,66.7c-3.82,2.35-1.15,3.48,1.26,5.05.85.55,7.62,4.48,8.08,4.54.72.1,3.37-1.13,4.29-1.51l3.53,7.57c-1.7.82-7.42,4.61-8.83,4.54-1.23-.06-19.95-10.35-21.7-11.61-1.2-.87-2.03-2.81-2.27-3.03-1.33-2.99,2.57-2,3.79-2.52,2.9-1.25,9.07-4.54,11.36-6.56,1.29,1.44,1.05,1.79.5,3.53h-.01Z"/>
        <path class="cls-2" d="M416.61,74.78c-.92.39-3.57,1.61-4.29,1.51-.46-.06-7.23-3.99-8.08-4.54-2.41-1.57-5.08-2.7-1.26-5.05,3.06-1.88,4.73-.08,6.31-.5.59-.16,3.6-2.96,4.54-3.03,1.2-.09,11.23,4.3,10.85,6.31-.09.5-7.22,4.94-8.08,5.3h0Z"/>
        <path class="cls-45" d="M427.21,91.43c-2.5.28-5.33,2.23-8.08,2.02,1.13-1.83,5.39-2.65,6.56-4.04l1.51,2.02h0Z"/>
        <path class="cls-22" d="M431.25,85.38c-.48.53-.34,1.16-1.51,1.01-1.18-2.1-.03-1.4,1.51-1.01Z"/>
      </g>
    </g>
    <g>
      <path class="cls-32" d="M370.17,62.66c1.49.58,5.03,2.62,6.56,3.53l-1.01,2.52c-4.38.42-16.3,9.61-21.7,11.1-.15.04-2.7-.67-3.03.5-7.46-4.09-15.5-7.43-22.21-12.87,1.82-1.08,2.64-1.67,4.04-3.28,2.23.16,3.88-2.23,5.8-2.02,2.5.27,7.61,5.88,11.36,4.54,2.59-.04,12.83-4.69,14.13-6.56,1.38,3.09,4.56,1.94,6.06,2.52v.02Z"/>
      <path class="cls-14" d="M333.83,53.07c.06.09-.04.32,0,.5-.87,1.87-.57,4.75-.5,6.81.04,1.17,1.53,1.89,1.51,2.02-.02.13-1.33.97-2.02,1.77-1.4,1.61-2.22,2.2-4.04,3.28,6.71,5.44,14.75,8.79,22.21,12.87.48.26,1.14-.43,2.52.76,1.71,1.47,1.95,4.18-.25,5.3l-4.29-2.27,2.02-2.02c-8.11-4.31-15.87-9.47-23.72-14.39-2.61-4.88,3.88-5.33,5.3-7.07.7-.86-.33-.99-.25-1.51.28-1.93-.19-4.08,0-6.06.18.13,1.44-.12,1.51,0h0Z"/>
      <path class="cls-34" d="M375.73,68.72c.58-.06,1.18.04,1.77,0,.6.33-.47.68-.25,1.01-4.88,2.78-12.6,8.68-18.42,10.6-.62.2-5.18,1.29-4.8-.5,5.4-1.5,17.33-10.68,21.7-11.1h0Z"/>
      <path class="cls-14" d="M381.78,67.71c-.07,0,.19.54-1.26.5-.84-.02-.5-2.23-1.51.5-2.23-1.4-.18-1.71-.25-1.77-.6-.5-1.71-.57-2.02-.76-1.53-.91-5.07-2.95-6.56-3.53l.5-.5c2.33,1.83,8.7,3.08,11.1,5.55h0Z"/>
      <path class="cls-34" d="M377.24,69.73l-.25,1.01c-.59-.34.46-.68.25-1.01Z"/>
      <g>
        <path class="cls-30" d="M342.41,31.37c3.03,2.28-4.94,4.21-5.05,5.3,1.26,2.47,4.27,2.61,5.8,3.79.8.61-.84,1.07.5,2.02,1.2.85,4.21,2.24,5.8,2.02,2.68,1.34,4.98,2.99,7.07,0,1.08-.11,1.42-.83,2.52-.25.35.18,4.47,5.62,4.04,6.81-4.33,2.3-8.66,5.04-12.87,7.57-1.66.22-25.16-12.95-25.49-14.39-.95-4.14,6.01-2.58,6.06-6.31.63-.39,1.39-1.13,2.02-1.51,2.96-1.83,6.47-3.45,9.59-5.05h0Z"/>
        <path class="cls-7" d="M363.11,51.05c3.8-2.02,8.44-4.54,12.62-5.55v.5l-1.26,2.02-24.73,12.62c-.91.09-14.12-6.55-15.9-7.57-1.56-.9-9-4.64-9.34-5.05-.59-.71-.87-5.33-.25-6.31.97-1.53,4.88-2.74,6.56-3.79-.05,3.73-7.01,2.16-6.06,6.31.33,1.43,23.83,14.6,25.49,14.39,4.21-2.53,8.54-5.27,12.87-7.57Z"/>
        <path class="cls-7" d="M371.69,58.12c-.2.12-.86-.2-1.51.25-.85.58,0,1.68,0,1.77-.12,1.07-1.28.62.5,2.02l-.5.5c-1.49-.58-4.67.57-6.06-2.52,1.79-2.58.45-3.4,1.01-5.55.86-3.34,7.94-4.18,10.6-6.06-.16,1.74.17,6.46-.5,7.82-.84,1.68-2.88,1.38-3.53,1.77h0Z"/>
        <path class="cls-25" d="M375.73,48.53c-2.66,1.87-9.74,2.72-10.6,6.06-5.98.22-10.75,5.05-16.15,7.07-.43-.52-10.41-5.12-12.11-6.06-.99-.54-2.14-1.31-3.03-2.02-.04-.18.06-.41,0-.5,1.78,1.03,14.99,7.67,15.9,7.57l24.73-12.62,1.26-2.02c.02,1.11.12,1.21,0,2.52h0Z"/>
        <path class="cls-8" d="M332.32,53.07c-2.73.21-3.12,2.99-2.02,5.05-4.7,2.89-7.23-5.01-6.06-7.82.96-2.3,7.01,1.99,8.08,2.78h0Z"/>
        <path class="cls-18" d="M332.32,53.07c-.19,1.98.28,4.12,0,6.06-1.14.15-1.47.01-2.02-1.01-1.1-2.06-.71-4.84,2.02-5.05Z"/>
        <path class="cls-46" d="M365.13,54.59c-.56,2.15.78,2.97-1.01,5.55-1.3,1.88-11.54,6.52-14.13,6.56.28-1.04-.49-.95-.5-1.01-.1-.55-.32-3.82-.5-4.04,5.4-2.02,10.17-6.84,16.15-7.07h-.01Z"/>
        <path class="cls-7" d="M336.86,55.59c-2.84,6.29,7.91,9.07,12.62,10.1.01.06.78-.03.5,1.01-3.74,1.34-8.86-4.27-11.36-4.54-1.92-.21-3.58,2.18-5.8,2.02.69-.8,2-1.63,2.02-1.77.02-.12-1.48-.85-1.51-2.02-.07-2.06-.36-4.94.5-6.81.88.71,2.04,1.48,3.03,2.02h0Z"/>
        <g>
          <path class="cls-47" d="M375.73,45.5c-4.18,1.01-8.81,3.53-12.62,5.55.44-1.2-3.69-6.63-4.04-6.81-1.11-.58-1.44.14-2.52.25-1.35.14-2.25,1.44-3.53.76l5.3-3.79-7.32,2.78c5.67-1.57,9.45-6.09.76-2.78,4.28-4.93-4.45-3.53-7.32-.76-.07.31,4.64,3.58,5.05,3.79-1.6.23-4.61-1.17-5.8-2.02-1.34-.95.29-1.4-.5-2.02-1.53-1.18-4.54-1.31-5.8-3.79.11-1.09,8.08-3.02,5.05-5.3,1.37-.7,5.53-3.89,6.81-4.04,1.69-.19,25.37,11.94,26.25,13.12,1.72,2.32.19,3.56.25,5.05h-.02Z"/>
          <path class="cls-13" d="M356.55,44.49c-2.09,2.99-4.39,1.34-7.07,0-.4-.2-5.12-3.48-5.05-3.79,2.87-2.77,11.59-4.17,7.32.76,8.69-3.32,4.91,1.2-.76,2.78l7.32-2.78-5.3,3.79c1.28.69,2.18-.62,3.53-.76h.01Z"/>
          <path class="cls-37" d="M355.54,38.94c-1.64-.7-3.95-1.03-5.55-2.27,2.15-1.07,4.19,1.53,5.55,2.27Z"/>
          <path class="cls-37" d="M355.54,38.94c1.47.62,3.8.75,5.05,2.27-1.87.41-3.6-1.49-5.05-2.27Z"/>
        </g>
        <path class="cls-5" d="M348.98,61.65c.18.22.4,3.49.5,4.04-4.71-1.03-15.46-3.81-12.62-10.1,1.7.93,11.68,5.54,12.11,6.06h.01Z"/>
      </g>
    </g>
    <g>
      <path class="cls-6" d="M183.92,215.1c14.59,8.15,58.55,36.12,71.93,37.35,12.66,1.17,20.5-3.55,31.04-9.09l2.02,1.51,7.07,4.29c-21.53,13.31-36.92,18.8-60.82,6.81-21.44-10.75-42.12-26.58-64.1-36.85l-.5-1.01c5.17-3.14,8.81-1.68,13.38-3.03l-.02.02Z"/>
      <path class="cls-37" d="M30.48,126.26c.26.86,6.81,7.38,7.32,7.57.21.08,3.82.5,4.04.5,2.65.02,11.12-2.27,11.36-5.55,1.76-.44,4.14-2.76,6.06-2.52.19.02,1.18,1.41,1.51,1.51,2.5.77,4.45,1.19,6.81,2.52,2.03,2.57-29.04,17.5-31.55,19.18-8.92-2.5-16.51-8.09-24.48-12.62-.64-.36-2.48-1.2-2.27.5-1.32-1.01.59-2.82,1.51-3.53-.16,1.62.98.83,1.77.5,5.9-2.46,11.42-8.63,17.92-8.08v.02Z"/>
      <path class="cls-25" d="M453.96,97.49c.11.39-.07,1.04,0,1.51-1.11.65-5.6,3.11-6.06,3.53-5.68.22-1.12,7.06-1.01,8.33.18,2.06-1.85,6.81.5,8.83,1.3,1.84,6.39-.07,7.57,3.03-1.6,1.79-5.91,3.2-6.56,4.54l-3.53-.5c-3.16-2.07-26.09-12.4-26.25-13.88l25.74-14.64c.16-1.04-9.64-5.75-11.61-6.31-1.51-1.07-2.2-1.25-2.52-3.28,8.62-.37,15.38,7.14,23.72,8.83h.01Z"/>
      <path class="cls-6" d="M295.47,241.85c1.12-1.19,1.61-2.94,1.77-3.03.25-.14,1.7,1.29,3.53,1.01,1.41-.21,11.13-6.72,5.3-7.57,3.39-1.88,6.69-4.16,10.1-6.06,1.26,5.67-1.15,2.96-4.54,5.3,3.83,2.47,8.45-3.1,7.57-6.81,6.23-3.48,12.45-7.09,18.68-10.6,2.6,2.63,7,1.23,10.35,4.04l-2.02,2.52-47.95,27.26c-1.01.18-5.66-1.84-5.8-2.78-.11-.72,2.29-2.49,3.03-3.28h-.02Z"/>
      <path class="cls-6" d="M378.25,191.37c2.39,4.48-4.72,3.58-6.06,5.8,1.47-.26,9.37,2.02,7.32,4.29-1.64,1.82-23.65,13.51-28.01,16.15-.18.11-.48.19-1.01.5l-6.56-3.28c-.27-1.27,5.47-3.94,4.04-6.31,10.08-5.71,20.23-11.41,30.29-17.16h0Z"/>
      <path class="cls-6" d="M169.79,207.53c.3,3.19,1.93,5.54,5.05,6.56-.31,2.78-4.44,2.25-6.06,4.04-.29-.17-.72-.33-1.01-.5-9.54-5.73-19.04-11.49-28.77-16.91.66-.58,4.5-3.72,4.8-3.79.69-.16,6.55,2.7,6.81-.5,6.43,3.62,12.78,7.52,19.18,11.1h0Z"/>
      <path class="cls-1" d="M347.97,208.54c1.44,2.37-4.31,5.04-4.04,6.31l6.56,3.28c-16.23,9.8-67.67,43.55-84.55,45.43-3.05.34-10.07.34-13.12,0-15.31-1.68-67.88-35.74-84.04-45.43,1.62-1.79,5.74-1.26,6.06-4.04,2.27.75,4.77-.08,7.07,0,.54.3,1.27.59,2.02,1.01-4.57,1.35-8.21-.11-13.38,3.03l.5,1.01c21.98,10.27,42.66,26.1,64.1,36.85,23.9,11.98,39.29,6.49,60.82-6.81l-7.07-4.29c2.58-1.26,7.22-1.76,5.05-5.55.06-.03.23-.58,1.01-1.01l.5,3.53c-.74.79-3.14,2.56-3.03,3.28.14.94,4.8,2.95,5.8,2.78l47.95-27.26,2.02-2.52c-3.35-2.8-7.74-1.41-10.35-4.04,3.34-1.88,6.76-3.67,10.1-5.55h.02Z"/>
      <path class="cls-9" d="M408.03,173.71c6.71-3.88,13.45-7.77,20.19-11.61l8.58,5.8c0,.53-7.69,5.12-8.83,5.8-2.03,1.22-16.67,9.44-17.67,9.59-2.2.34-4.49-.49-6.31-1.77,1.76-2.57,5.92-3.87,4.04-7.82h0Z"/>
      <path class="cls-25" d="M445.89,163.61c-.83-2.43.12-4.85,0-5.3-.53-2.01-3.42-4.78-4.54-6.81-.54-.98-1.8-.97-1.51-3.28.05-.39,1.23-6.23,1.51-7.32l25.74,12.87-21.2,9.84Z"/>
      <path class="cls-41" d="M91.55,163.11c.31.17.7.33,1.01.5l-4.29,1.01c1.34,2.41,4.47,1.59,6.31,0,5.27,2.92,10.4,6.15,15.65,9.09-.01,4.63,3.1,4.33,5.05,7.32l-6.06,3.28s.09-.15-.5-.5c-8.6-5.1-17.12-10.63-25.74-15.65,3.44-2.72,4.19-5.25,8.58-5.05h-.01Z"/>
      <path class="cls-6" d="M123.85,181.28c5.06,2.84,10.09,5.74,15.14,8.58-.16,3.54,2.98,3.97,4.54,6.31l-6.56,4.8c-.67-.38-1.33-.61-2.02-1.01l-23.72-14.89c4.45-5.24,7.65-1.7,12.62-3.79h0Z"/>
      <path class="cls-9" d="M382.79,199.45c-.65.41-.36.61-1.01,1.01l-5.05-3.28c-.79-1.83,6.63-4.55,4.04-7.32,5.74-3.29,11.43-6.79,17.16-10.1,2.51,2.25,4.6,2.42,7.32,4.04.37.38.35,1.28.25,1.77-.25,1.31-19.9,12.13-22.71,13.88Z"/>
      <path class="cls-14" d="M293.45,27.33l-17.16,8.08s-.26-.22-.5-.5l14.64-8.33c-7.44-2.8-21.78-14.35-29.02-14.89-9.9-.74-23.35,11.65-32.81,14.64l10.35,5.55c-.13.38.1,1.06,0,1.51-2.08-.93-10.29-6.06-11.86-6.06-2.06,0-16.5,9.07-19.43,10.35,0,1.79,14.53,6.77,15.9,8.33.92,1.05.87,1.4.76,2.78-8.74,5.83-18.49,11.05-28.01,15.9-2.47,1.99,2.28,1.96,2.02,4.04-3.61.73-7.82-1.09-3.79-4.54,3.36-1.64,28.55-14.27,28.77-15.9.36-2.65-16.1-7.71-18.17-10.6.18-2.28,2.72-1.46,3.28-1.77,7.49-4.17,44.01-24.79,49.97-25.24,7.79-.58,27.65,12.14,35.08,16.66h-.02Z"/>
      <path class="cls-14" d="M27.45,123.74c-.25,2.72,1.73,1.39,3.03,1.51.04.32-.08.76,0,1.01-6.5-.55-12.02,5.61-17.92,8.08-.79.33-1.92,1.12-1.77-.5,4.01-3.09,11.88-5.45,16.15-8.83-.57-1.2-22.41,9.64-23.72,11.61-1.12,2.08-2.62,23.93-2.02,26.25.46,1.74,2.96,2.76,4.29,3.79l28.01-15.9-24.23-13.38c-.21-1.7,1.63-.87,2.27-.5,7.97,4.53,15.56,10.12,24.48,12.62.53,3.04-1.15,2.01-2.02,2.52-8.56,5.07-17.67,9.31-26.25,14.39-.29,1.79,16.37,8.68,18.17,11.36l-19.43-10.1c5.54,4.59,12.37,7.3,18.42,11.1-.27,1.04-1.67.26-2.27,0-3.76-1.62-21.61-12.08-22.46-15.39-.75-2.93,1-25.38,2.52-27.76,1.3-2.03,18.29-9.98,21.96-11.86,1.29-.66,2.65.07,2.78,0v-.02Z"/>
      <path class="cls-48" d="M445.89,164.12s.59-.08.5.5c-3.57,1.84-5.21,3.89-8.33,5.55-.06.03-.95-1.04-1.01-1.01-16.53,8.86-31.54,18.95-47.95,27.76-1.61.86-4.52,2.68-6.31,2.52,2.81-1.76,22.46-12.57,22.71-13.88.09-.48.12-1.39-.25-1.77-2.72-1.62-4.81-1.78-7.32-4.04,3.41-1.97,6.71-4.1,10.1-6.06,1.88,3.95-2.27,5.25-4.04,7.82,1.82,1.27,4.11,2.11,6.31,1.77.99-.15,15.63-8.37,17.67-9.59,1.14-.69,8.83-5.28,8.83-5.8l-8.58-5.8c3.83-2.18,7.67-4.62,11.61-6.06-1.37,5.22-3.23,4.45-7.57,7.32.02.25,3.76,2.6,4.29,2.78,1.81.59,1.91-1.02,2.02-1.01.16.02.56,1.55,1.01,1.51,2.33-.2,4.05-2.16,6.31-2.52h0Z"/>
      <path class="cls-1" d="M71.36,129.79c-4.56,3.2-9.04,6.82-13.88,9.59-3.39,1.93-16.97,7.88-18.68,9.59-.66.66-1.21,9.28-4.8,3.03.86-.51,2.54.51,2.02-2.52,2.51-1.68,33.58-16.61,31.55-19.18-2.37-1.34-4.31-1.75-6.81-2.52-.43-3.55,1.61-17.5,2.78-5.55.72-7.51,2.28-6.4,8.08-9.59,1.68.75.13,7.36-.25,7.82-1.18,1.42-5.8.74-6.06,3.53-.06,1.7,2.9,1.43,3.28,1.77,1.46,1.3,2.59,3.88,2.78,4.04h-.01Z"/>
      <path class="cls-7" d="M453.46,193.9c-3.63,6.1,7.82,8.5,12.62,10.1v.5c-1.21-.02-1.73.6-3.79,0-1.23-.36-7.61-4.57-8.08-4.54-.56.04-8.56,4.79-9.84,5.55-.48.28-.9.62-1.51.5-1.54-.79-2.61-2-2.78-2.02-.58-.08-8.46,5.72-10.6,5.05l8.83-4.8-21.7-14.13c3.46.66,21.64,13.38,22.97,13.38.57,0,9.6-5.06,9.84-5.8.39-1.17-.75-5.81.76-6.31,1.23.42,2.42,2.06,3.28,2.52Z"/>
      <path class="cls-6" d="M445.89,163.61c.05.16-.06.37,0,.5-2.26.37-3.98,2.33-6.31,2.52-.45.04-.85-1.5-1.01-1.51-.11-.01-.21,1.6-2.02,1.01-.53-.17-4.27-2.52-4.29-2.78,4.34-2.86,6.2-2.1,7.57-7.32.4-1.53.12-3.81,1.51-4.54,1.12,2.03,4.02,4.8,4.54,6.81.12.45-.83,2.87,0,5.3h.01Z"/>
      <path class="cls-1" d="M123.85,181.28c-4.97,2.08-8.17-1.45-12.62,3.79l23.72,14.89c-8.7-5.01-17.27-10.64-25.74-15.65l6.06-3.28c-1.95-2.99-5.06-2.69-5.05-7.32,4.53,2.54,9.1,5.03,13.63,7.57h0Z"/>
      <path class="cls-20" d="M150.61,196.42c-.26,3.21-6.13.34-6.81.5-.3.07-4.13,3.21-4.8,3.79,9.73,5.42,19.23,11.18,28.77,16.91-10.67-4.73-20.67-10.91-30.79-16.66l6.56-4.8c-1.56-2.34-4.71-2.77-4.54-6.31,3.87,2.18,7.74,4.38,11.61,6.56h0Z"/>
      <path class="cls-32" d="M79.94,158.06c.53.68.43,1.96,2.27,3.53.56.48,4.22,1.51,4.29,2.27l-4.54,2.78c-1.09-.66-4.34-.4-4.54-.5-1.76-.89-3.73-1.64-5.55-2.52,2.81-2.55,3.49-5.2,5.8-8.08,1.36.3,1.39,1.4,2.27,2.52h0Z"/>
      <path class="cls-25" d="M385.82,69.22c-.24-.06-1.18-1.33-4.04-1.51-2.4-2.48-8.77-3.73-11.1-5.55-1.78-1.4-.62-.95-.5-2.02,2.83-2.41,20.45,7.09,19.94,8.08-2.45.89-1.72,1.63-4.29,1.01h0Z"/>
      <path class="cls-14" d="M71.87,163.61c1.82.89,3.79,1.63,5.55,2.52-.02.25-.51,1.43-.5,1.51-2.57-2.78-25.15-11.56-25.74-12.87-.3-.67-.07-2.29.76-2.78l23.22-12.11-23.47,13.88c6.82,3.1,13.46,6.57,20.19,9.84h-.01Z"/>
      <path class="cls-48" d="M381.78,200.46c-2.91,1.8-5.84,4.23-8.83,6.06-6.71,4.09-14.27,7.85-21.45,11.1,4.36-2.64,26.38-14.34,28.01-16.15,2.05-2.27-5.84-4.55-7.32-4.29,1.33-2.22,8.44-1.32,6.06-5.8.81-.46,1.68-1.03,2.52-1.51,2.6,2.77-4.83,5.49-4.04,7.32l5.05,3.28h0Z"/>
      <path class="cls-14" d="M446.39,164.62c.09-.58-.49-.47-.5-.5-.06-.13.05-.35,0-.5l21.2-9.84-25.74-12.87c.1-.37-.33-.53-.5-.76l1.26-.25c2.59,2.78,25.54,11.5,25.99,12.87.26.78,0,1.78-.76,2.27-7.23,2.58-14.15,6.08-20.95,9.59h0Z"/>
      <path class="cls-20" d="M81.96,166.64c.17.1.35,1.13,1.01,1.51,8.62,5.01,17.14,10.55,25.74,15.65-.21,1.02-1.76.27-2.27,0-4.35-2.28-20.91-13.5-23.72-14.13-.4-.09-5.49,2.98-5.8-2.02,0-.08.48-1.26.5-1.51.2.1,3.45-.15,4.54.5Z"/>
      <polygon class="cls-14" points="103.41 188.85 80.45 203.24 88.77 208.54 78.43 203.74 103.41 188.85"/>
      <path class="cls-14" d="M91.55,163.11c-4.4-.2-5.14,2.32-8.58,5.05-.66-.38-.84-1.41-1.01-1.51l4.54-2.78c-.07-.76-3.73-1.79-4.29-2.27-1.84-1.57-1.74-2.86-2.27-3.53-.17-1.73,1.54-.85,2.27-.5,2.75,1.31,6.45,3.96,9.34,5.55h0Z"/>
      <path class="cls-10" d="M99.12,114.15l-27,14.13c-.76-.87.38-1.06,1.01-1.51,2.84-2.04,21.49-11.76,24.99-13.12,2.66-1.04.96.4,1.01.5h-.01Z"/>
      <path class="cls-27" d="M295.47,241.85l-.5-3.53c.97-.53,2.08-.99,3.03-1.51,1.69,4,7.94-.55,6.06-3.53.65-.36,1.37-.65,2.02-1.01,5.83.86-3.89,7.36-5.3,7.57-1.83.28-3.29-1.15-3.53-1.01-.15.09-.65,1.83-1.77,3.03h-.01Z"/>
      <path class="cls-14" d="M159.44,222.16c.69-.12,1.71.8,1.01,1.51l-24.48,12.87,23.47-14.39h0Z"/>
      <path class="cls-22" d="M293.96,239.33c2.17,3.79-2.46,4.3-5.05,5.55l-2.02-1.51c2.34-1.23,4.7-2.75,7.07-4.04h0Z"/>
      <path class="cls-14" d="M442.86,206.01c.62.12,1.04-.22,1.51-.5l16.4,10.1c-6.29-2.52-11.96-6.52-17.92-9.59h.01Z"/>
      <path class="cls-37" d="M25.93,177.75c.07.1-.08.59.5.5-.16.21-.39.72-.5,1.01-.34-.08-.72-.32-1.01-.5-6.05-3.8-12.88-6.52-18.42-11.1l19.43,10.1h0Z"/>
      <path class="cls-27" d="M316.17,226.2c.94-.53,2.07-.98,3.03-1.51.88,3.72-3.74,9.28-7.57,6.81,3.39-2.34,5.8.37,4.54-5.3h0Z"/>
      <path class="cls-22" d="M297.99,236.8c2.02-1.11,4.01-2.4,6.06-3.53,1.88,2.99-4.36,7.53-6.06,3.53Z"/>
      <path class="cls-1" d="M71.36,129.79l10.1,4.8c-2.95.58-7.71-2.82-10.1-4.8Z"/>
      <path class="cls-38" d="M94.58,164.62c-1.84,1.59-4.97,2.41-6.31,0l4.29-1.01c.65.36,1.37.65,2.02,1.01Z"/>
      <g>
        <path class="cls-37" d="M331.31,35.4c.59.39.67.78,1.51,1.01-.63.39-1.39,1.12-2.02,1.51-1.68,1.05-5.59,2.25-6.56,3.79-.62.98-.34,5.6.25,6.31.34.41,7.78,4.15,9.34,5.05-.07-.12-1.33.13-1.51,0-1.07-.79-7.12-5.07-8.08-2.78-1.17,2.82,1.35,10.71,6.06,7.82.55,1.02.88,1.16,2.02,1.01-.07.52.96.65.25,1.51-1.42,1.74-7.91,2.18-5.3,7.07-1.08-.67-1.1-1.26-1.51-1.51-.07-.04.18-.94-.76-1.51l-30.03-16.4.76-2.27c4.49-.32,12.86-7.66,16.66-7.57,2.56.06,7.53,5.6,10.35,4.29l-28.77-14.89c-.58-.35-.47-.49-.5-.5-7.43-4.51-27.29-17.24-35.08-16.66-5.96.45-42.48,21.07-49.97,25.24-.56.31-3.1-.52-3.28,1.77,2.07,2.89,18.53,7.95,18.17,10.6-.22,1.63-25.41,14.26-28.77,15.9l-2.52.5-5.05-3.79c5.24-4.36,7.23-2.38,7.07-10.85-.01-.58.28-1.48-.5-1.51,3.4-7.86-.55-6.89-5.05-9.59-.58-.35-1.44-1.17-2.02-1.51.08-.59.72-1.12,1.01-1.51,5.57-2.06,11.12-4.84,16.4-7.57,10.3-5.32,45.35-26.28,54.01-27.26,10.93-1.24,50.57,23.37,62.59,29.78,3.08,1.64,7.42,4.06,10.85,4.54l-.02-.02Z"/>
        <path class="cls-10" d="M331.31,35.4c-3.43-.48-7.78-2.9-10.85-4.54-12.02-6.41-51.66-31.02-62.59-29.78-8.66.98-43.71,21.94-54.01,27.26-5.29,2.73-10.83,5.51-16.4,7.57,1.66-2.23,42.52-23.22,48.71-26.25,6.83-3.34,18.94-10.46,26.25-9.59,8.49,1.01,59.5,29.07,68.9,35.33h-.01Z"/>
        <path class="cls-14" d="M325.76,66.19l-5.8,2.52,3.03-3.53c-3.52-2.72-27.28-13.56-28.52-15.39-3.91-5.78,13.56-8.22,15.14-12.62-5.31-3-10.46-6.17-15.65-9.34l28.77,14.89c-2.82,1.31-7.79-4.23-10.35-4.29-3.79-.09-12.17,7.25-16.66,7.57l-.76,2.27,30.03,16.4c.94.58.69,1.47.76,1.51h.01Z"/>
        <path class="cls-10" d="M203.86,37.93c3.3-.26-7.01,6.07-7.82,4.29l7.82-4.29Z"/>
      </g>
      <path class="cls-37" d="M10.79,133.83c-.93.71-2.83,2.53-1.51,3.53l24.23,13.38-28.01,15.9c-1.33-1.03-3.84-2.04-4.29-3.79-.6-2.31.9-24.16,2.02-26.25,1.32-1.97,23.15-12.81,23.72-11.61-4.27,3.39-12.14,5.74-16.15,8.83h0Z"/>
      <path class="cls-32" d="M33.5,125.25c6.4,1.58,5.98,4.03,14.13,4.04,3.03,0,2.29.31,5.55-.5-.23,3.28-8.71,5.57-11.36,5.55-.22,0-3.83-.43-4.04-.5-.5-.19-7.06-6.72-7.32-7.57-.08-.25.04-.69,0-1.01,1.12.11,2.88-.04,3.03,0h0Z"/>
      <path class="cls-37" d="M275.79,34.9c-5.1-5.91-14.04-11.35-22.21-10.1-5.49-1.36-12.76,1.45-14.64,7.07l-10.35-5.55c9.45-2.99,22.91-15.38,32.81-14.64,7.24.54,21.59,12.09,29.02,14.89l-14.64,8.33h0Z"/>
      <g>
        <path class="cls-25" d="M229.35,56.6v.5c-.36,1.72-1.03,5.5-1.01,7.07-43.16,22.53-84.65,48.07-127.2,71.68-1.47.82-5.94.4-5.8,4.54-2.68-2.59-1.38-7.76,2.02-9.59,43.64-25.26,88.58-48.6,131.99-74.2h0Z"/>
        <path class="cls-24" d="M415.1,133.83c-30.46-16.07-61.07-34.58-90.86-51.99l3.03-4.04c31.34,18.24,63.77,35.6,94.64,54.01l-6.81,2.02Z"/>
        <path class="cls-37" d="M301.53,63.17c1.64,1.08,12.37,7.62,12.62,8.33.53,1.5-1.87,2.15-.5,4.29-3.91-2.31-29.06-15.73-30.03-17.16-.4-.59-.18-.95-.25-1.51-.03-.19,1.04-2.81.5-3.79.69-1.14,15.83,8.64,17.67,9.84h-.01Z"/>
        <path class="cls-16" d="M327.27,77.8l-3.03,4.04c-3.51-2.05-7.1-3.99-10.6-6.06-1.37-2.14,1.04-2.79.5-4.29-.25-.71-10.98-7.25-12.62-8.33l4.8,1.51c6.06,5.21,13.96,9.05,20.95,13.12h0Z"/>
        <path class="cls-7" d="M408.54,166.14c-1.52.41-1.95.45-3.53.5-8.91-4.23,8.3-10.93,9.59-5.8.93,3.68-3.49,4.6-6.06,5.3h0Z"/>
        <path class="cls-37" d="M408.54,166.14c2.57-.7,6.99-1.62,6.06-5.3-1.29-5.13-18.5,1.57-9.59,5.8-2.53.08-4.68.14-4.04-3.28,1.06-5.67,12.37-8.37,14.64-4.04.67,1.27-1.53,4.8,3.03,3.03l-10.35,6.81.25-3.03h0Z"/>
        <path class="cls-37" d="M282.1,239.83l.5,1.51c-9.18,5.83-20.66,9.62-31.55,6.31,2.13-1.35,4.04.24,4.29.25,9.1.43,18.61-2.05,26.75-8.08h.01Z"/>
        <path class="cls-1" d="M184.68,199.45c3.18-.59,6.36-.25,5.8,3.79-4.79,3.63-13.01-2.45-5.8-3.79Z"/>
        <path class="cls-20" d="M181.9,214.09c-2.3-.08-4.8.75-7.07,0-3.11-1.02-4.75-3.37-5.05-6.56,3.98,2.23,8.11,4.32,12.11,6.56h.01Z"/>
        <path class="cls-10" d="M96.35,124.24c.41-.04,1.1-.13,1.26.25-4.98,3.33-10.38,6.19-15.65,9.09,1.04-1.84,13.17-9.21,14.39-9.34Z"/>
        <path class="cls-37" d="M263.67,37.93c9.18,7.41,7.53,15.14,7.57,25.74l-19.69-10.1c.44-5.88-1.38-12.43,1.01-17.67,5.44-2.53,6.37-.87,11.1,2.02h.01Z"/>
        <g>
          <path class="cls-37" d="M370.93,177.75c.3-.06,5.76-.07,6.06,0,1.93.48,3.98,6.1,2.52,8.08-2.06,2.8-18.77,9.26-22.21,12.62-.27-3.7-1.41-.84-3.03-1.51-5.3-2.19-4.23-6.14-.5-9.59.72-.67,16.2-9.4,17.16-9.59h0Z"/>
          <path class="cls-7" d="M371.94,179.76c4.83-.75,8.91,1.88,5.05,6.06-.68.74-16.67,9.43-17.67,9.59-2.69.44-7.79-.59-6.81-4.29.29-1.09,17.71-11.09,19.43-11.36Z"/>
        </g>
        <g>
          <path class="cls-25" d="M119.56,164.12c3.23-1.03,11,1.85,9.84,6.31-.84,1.84-9.06,2.28-10.85,1.77-2.65-.76-1.74-7.2,1.01-8.08h0Z"/>
          <path class="cls-20" d="M121.58,164.62c2.31-.19,2.99,1.29,3.28,3.28l-5.05,1.51,4.8-.25c-4.46,6.96-8.29-4.1-3.03-4.54Z"/>
        </g>
        <g>
          <g>
            <path class="cls-37" d="M277.3,120.2c2.2.37,11.52-5.93,14.64-7.32v-28.27c.58-1.54,2.36.5,3.03.76,3.99,1.54,31.86,16.1,34.07,18.17,1.32,1.24.91,1.04,1.26,2.52.08.35.5,4.59.5,5.05,0,.21-.83,2.89-1.01,4.04-15.53,8.8-30.45,18.92-45.93,27.76-3.32,1.89-15.27,9.45-17.67,10.1,1.47-2.93,3.38-5.46,2.27-9.09-4.6,3.04-10.46,2.33-15.65,1.01l-63.35-35.84c0-.29-.48-.92-.5-2.02-.02-1.21.04-2.34-.25-3.53l40.13-21.2c.06,3.95-.04,7.91,0,11.86l48.46,25.99h0Z"/>
            <path class="cls-25" d="M266.2,153.01c2.39-.64,14.35-8.2,17.67-10.1-.21,2.05,1.3,3.16,2.02,4.04.08.1-.08.42,0,.5-1.16-.37-2.17,1.32-2.52,1.51-5.56,3.08-13.86,8.74-19.69,9.59-2.9.43-4.18.39-7.07,0-6.73-.9-14.48-6.24-20.69-9.59-.35-.19-.97-.71-1.51-1.01-4.93-2.68-9.78-5.75-14.64-8.58-.91-.53-2.2-1.03-3.03-1.51-3.49-2.06-7.16-3.96-10.6-6.06-2.54-1.55-5.88-3.11-8.08-4.54-.86-.56-2.03-1.17-2.52-1.51-.71-.5-5.38-4.23-5.55-4.54-.06-.11-.38-2-.5-2.52-.2-.82-.42-2.61-.5-3.53l62.84,36.85c4.59,1.41,9.59,2.3,14.39,1.01h-.02Z"/>
            <path class="cls-25" d="M266.2,153.01c-4.79,1.29-9.8.4-14.39-1.01l-62.84-36.85c-.16-1.73.51-3.56.5-5.55v-.5l63.35,35.84c5.19,1.32,11.05,2.03,15.65-1.01,1.11,3.63-.8,6.16-2.27,9.09h0Z"/>
            <path class="cls-16" d="M329.79,115.16c-.22,1.39,0,2.43-.5,4.04-.39,1.22-.18,1.22-1.01,2.52-.53.83-2.62,2.39-3.53,3.03-.2.14-2.38,1.27-3.53,2.02-2.21,1.44-5.54,2.99-8.08,4.54-3.44,2.11-7.11,4-10.6,6.06-1.02.6-2.02,1.43-3.03,2.02-4.46,2.62-9.08,5.1-13.63,7.57-.72-.88-2.23-1.99-2.02-4.04,15.48-8.84,30.4-18.97,45.93-27.76h0Z"/>
          </g>
          <g>
            <path class="cls-30" d="M238.94,51.56c.08,1.53-.34,5.29,0,6.31.49,1.45,5.47,3.58,7.07,3.28,5.6-1.05,5.24-3.36,5.55-7.57l19.69,10.1v.5c0,3.63.24,7.52,0,11.1-.03.48.83.79.5,1.26l-2.02.25c-9.78-5.8-20.79-9.84-30.03-16.66l-2.27,1.01c-2.57-1.42-5.44-2.71-8.08-4.04v-.5c3.1-1.83,5.99-4.11,9.59-5.05h0Z"/>
            <path class="cls-17" d="M294.97,85.38c-.67-.26-2.44-2.3-3.03-.76v28.27c-3.12,1.39-12.44,7.69-14.64,7.32,3.01-12.03-.96-25.2,1.01-37.6-.58-1.04-1.83-1.19-2.52-1.77-1.74-1.44-4.11-2.88-6.06-4.04l2.02-.25c.33-.47-.54-.78-.5-1.26.99.07,2.41,1.79,3.03,2.52.05.06-1.27.37.25,1.51,2.11,1.59,3.32.84,5.55,1.01l11.36-7.07c1.33,2.39-.1,6.45.5,8.83.38,1.48,3.51,1,3.03,3.28h0Z"/>
            <path class="cls-39" d="M287.4,70.74c.66.29,3.85,2.19,4.04,2.52l-11.36,7.07c-2.23-.17-3.45.58-5.55-1.01-1.52-1.15-.2-1.46-.25-1.51.95-.44,1.42.46,1.51.5,1.59.7,5.29-1.19,6.56-2.52,2.39-2.51,1.12-2.69,1.51-6.06.9.5,2.77.67,3.53,1.01h0Z"/>
            <path class="cls-2" d="M269.73,76.79c1.95,1.16,4.32,2.6,6.06,4.04-.56.99-3.13-.18-3.79-.5-11.68-5.7-23.18-12.87-34.58-19.18l2.27-1.01c9.24,6.82,20.25,10.85,30.03,16.66h0Z"/>
            <g>
              <path class="cls-30" d="M253.58,24.8c10.9,2.71,22.09,15.8,23.22,27.76-.78-.1-1.25.1-2.02-.5.72-2.75-.93-4.52-2.02-7.07-1.65-3.86-3.91-7.39-7.32-10.1-8.6-6.82-20.63-10.29-21.45,4.54-.15,2.69.39,8.01.5,11.1l-.76,4.04c-.45-.87-3.41-.87-3.53-1.01-.94-1.01.98-6.23-1.26-6.06-.21-4.36-.91-9.95,0-14.13.1-.45-.13-1.14,0-1.51,1.87-5.62,9.15-8.43,14.64-7.07h0Z"/>
              <path class="cls-48" d="M275.79,34.9c.24.28.48.48.5.5.56.69,1.99,3.12,2.52,4.04,1.88,5.33,2.85,8.49,3.53,14.13-1.87-.33-3.66-.76-5.55-1.01-1.13-11.96-12.32-25.05-23.22-27.76,8.17-1.25,17.11,4.18,22.21,10.1h.01Z"/>
              <path class="cls-20" d="M244.49,50.55c.13,3.61-.82,7.64,1.51,10.6-1.59.3-6.58-1.83-7.07-3.28-.34-1.02.08-4.78,0-6.31-.07-1.33.06-2.7,0-4.04,2.25-.17.32,5.04,1.26,6.06.12.13,3.08.14,3.53,1.01l.76-4.04h0Z"/>
              <path class="cls-27" d="M282.35,53.58c.45,3.76,1.04,10.27,1.01,13.88-.02,2.57-.7,5.73-1.01,8.33-1.27,1.33-4.97,3.22-6.56,2.52.53.03,1.48-1.57,1.51-1.77.53-3.22-.15-20.2-.5-23.98,1.9.25,3.68.68,5.55,1.01h0Z"/>
              <path class="cls-7" d="M252.57,35.91c-2.39,5.23-.57,11.78-1.01,17.67-.31,4.22.04,6.52-5.55,7.57-2.33-2.96-1.38-6.99-1.51-10.6-.11-3.09-.65-8.41-.5-11.1,1.82-.54,4.65,1.2,6.31.5.46-.19-1.2-2.42,2.27-4.04h-.01Z"/>
              <path class="cls-48" d="M276.8,52.57c.36,3.78,1.03,20.76.5,23.98-.03.19-.98,1.79-1.51,1.77-.09-.04-.56-.94-1.51-.5-.62-.74-2.04-2.45-3.03-2.52.24-3.59,0-7.48,0-11.1,2.29-1.72.38-6.6,1.01-8.83.19-.66,2.03-1.37,2.52-3.28.76.61,1.24.4,2.02.5v-.02Z"/>
              <path class="cls-7" d="M272.76,45c1.09,2.55,2.73,4.32,2.02,7.07-.5,1.91-2.34,2.62-2.52,3.28-.63,2.23,1.28,7.11-1.01,8.83v-.5c-.04-10.6,1.61-18.34-7.57-25.74,2.17,1.32,2.86,1.37,5.05,3.79,1.35,1.48,1.11,4.75,4.04,3.28h-.01Z"/>
              <path class="cls-1" d="M272.76,45c-2.93,1.47-2.69-1.8-4.04-3.28-2.19-2.41-2.87-2.46-5.05-3.79-4.73-2.88-5.67-4.54-11.1-2.02-3.48,1.61-1.82,3.85-2.27,4.04-1.66.7-4.49-1.04-6.31-.5.83-14.83,12.85-11.36,21.45-4.54,3.41,2.7,5.67,6.24,7.32,10.1h0Z"/>
            </g>
            <g>
              <path class="cls-12" d="M237.42,61.15c11.4,6.31,22.9,13.48,34.58,19.18.66.32,3.22,1.5,3.79.5.69.57,1.95.72,2.52,1.77-1.97,12.4,2,25.58-1.01,37.6l-48.46-25.99c-.04-3.95.06-7.92,0-11.86-.09-6.01.51-11.95.5-17.92,0-.41-1.01-.2-1.01-.25-.02-1.57.65-5.34,1.01-7.07,2.64,1.33,5.5,2.61,8.08,4.04Z"/>
              <path class="cls-37" d="M249.29,77.3c4.19-.91,11.95,5.92,9.34,10.35-.55.93-2.8,1.24-3.03,2.02-.18.62,2.87,12.12,1.26,12.37-14.54-5.55-5.6-8.25-6.81-14.39-.16-.81-7.55-8.86-.76-10.35h0Z"/>
            </g>
          </g>
        </g>
        <g>
          <path class="cls-14" d="M198.05,127.27c-5.37,2.5-9.23,9.66-3.79,14.13,3.02,2.48,52.93,29.54,56.03,30.29,1.25.3,7.09.47,8.83.5,3.08.05,6.31.26,9.34-.5,9.39-2.37,40.7-22.25,50.98-28.27,2.6-1.52,7.01-1.5,7.82-4.8.13-.51-.33-5.84-.5-6.31.89.73,1.61.38,2.52.5,2.86.4,5.39,3.18,4.54,6.31-.17.64-8.69,7.91-9.84,8.83-1.26,1-10.93,7.53-12.11,8.08-2,.92-2.25-.9-4.04,0-.79.4-2.29,3.02-4.04,4.04-2.42,1.41-5.09,2.69-7.57,4.04-.11.06-.88-1.29-1.51-1.01-.43.19.04,1.45-1.01,2.02-15.52,8.39-18.81,12.93-37.86,11.61-8.71-.61-36.48-11.75-42.4-17.67-1.39-1.39.4-1.44.25-1.77-1.12-2.55-3.93-.38-5.3-.76-4.67-1.27-20.1-12.7-22.46-17.41-3.5-6.96,6.02-8.94,9.59-13.38.5.35,1.67.95,2.52,1.51v.02Z"/>
          <path class="cls-1" d="M324.75,124.75l4.54,8.08c-.91-.13-1.63.23-2.52-.5-.89-2.44-3.67-4.03-5.55-5.55,1.16-.75,3.33-1.88,3.53-2.02h0Z"/>
          <g>
            <path class="cls-11" d="M283.36,57.11c.08.57-.15.93.25,1.51.98,1.43,26.12,14.85,30.03,17.16,3.5,2.07,7.09,4.01,10.6,6.06,29.79,17.41,60.4,35.92,90.86,51.99,1.16.61,6.64,1.68,7.07,2.78.58,1.5-1.02,8.02-3.28,8.83-52.43,27.3-102.06,60.33-154.96,86.31h-6.56c-48.71-23.59-95.98-52.01-143.35-78.74-6.45-3.64-26.34-9.55-12.87-17.16,42.55-23.6,84.04-49.15,127.2-71.68,0,.05,1.01-.16,1.01.25,0,5.97-.59,11.91-.5,17.92l-40.13,21.2c.29,1.19.23,2.32.25,3.53-3.28-1.23-1.86,2.13-2.02,2.27-3.93,3.62-6.04-.41-8.33.76-1.46.75-2.67,5.48-5.3,6.31,9.93,4.32,9.48-5.13,16.15-6.81,0,1.99-.66,3.82-.5,5.55.09.92.3,2.71.5,3.53-7.5,7.03-24.54,14.35-16.66,27,1.9,3.05,7.47,5.83,10.1,8.58,1.02,1.07-.06,1.94,0,2.02,4.51,5.97,13.49-1.05,3.79-4.29-.83-.28-1.85.88-3.03.5-.6-.19-7.18-9.73-7.32-10.35-1.77-8.03,7.19-16.97,13.63-20.95.17.31,4.84,4.04,5.55,4.54-3.57,4.44-13.09,6.41-9.59,13.38,2.37,4.71,17.79,16.14,22.46,17.41,1.37.37,4.18-1.79,5.3.76.14.33-1.64.38-.25,1.77,5.91,5.91,33.69,17.06,42.4,17.67,19.05,1.32,22.33-3.22,37.86-11.61,1.05-.57.58-1.83,1.01-2.02.64-.28,1.41,1.07,1.51,1.01,2.48-1.35,5.15-2.63,7.57-4.04,1.75-1.01,3.25-3.64,4.04-4.04,1.79-.9,2.04.92,4.04,0,1.18-.54,10.85-7.07,12.11-8.08,1.16-.92,9.67-8.2,9.84-8.83.85-3.13-1.69-5.91-4.54-6.31l-4.54-8.08c.91-.64,3-2.2,3.53-3.03,4.07-.63,14.05,10.81,14.64,13.38,1.91,8.38-5.95,10.87-8.58,17.41-1.82-.93-3.14-.35-4.8.5-8.1,4.19,6.24,9.13,5.8.5,22.92-13.82,11.81-24.38-6.06-34.32.51-1.61.29-2.65.5-4.04.18-1.15,1.01-3.83,1.01-4.04,3.72-.8,2.11,1.9,2.52,2.27.76.68,8.8,5.27,9.34,5.3,1.36.07,3.63-2.03,3.28-3.28-.29-1.02-3.58-1.58-3.79-1.77-1.53-1.35-1.44-3.86-2.02-4.04-.84-.26-4.56.19-5.05,0-.98-.38-.59-1.76-1.01-2.02-1.29-.79-2.85.06-3.79-1.51-.35-1.49.06-1.29-1.26-2.52-2.21-2.07-30.08-16.63-34.07-18.17.48-2.28-2.65-1.8-3.03-3.28-.61-2.38.82-6.44-.5-8.83-.19-.34-3.38-2.23-4.04-2.52l-3.28-2.52c-1.61-.01-.21,1.14-.25,1.51-.39,3.37.88,3.55-1.51,6.06.31-2.6.99-5.76,1.01-8.33.03-3.61-.56-10.12-1.01-13.88-.68-5.65-1.66-8.8-3.53-14.13,3.2,5.53,5.07,11.16,4.54,17.67v.02Z"/>
            <g>
              <g>
                <path class="cls-14" d="M203.86,163.11c4.58-.94,4.91,3.27,7.07,4.54,5.7,3.37,29.78,16.47,34.83,17.16,2.28.31,27.04.33,29.28,0,4.32-.64,28.07-14.97,33.82-18.17,2.38-1.32,2.8-5.03,6.56-3.03,3.76,2,1.54,7.33-3.53,6.06-.56-.14-1.39-2.04-2.52-2.02-2.8.04-26.43,17.55-33.31,18.68-4.97.81-31.62-.12-36.34-1.51-5.57-1.64-27.34-16.74-30.29-16.66-1.07.03-3.9,2.98-7.07,1.01-2.58-1.6-1-5.54,1.51-6.06h0Z"/>
                <path class="cls-1" d="M347.21,157.56c6.85-2.05,4.58,6.63,1.01,7.57-1.04.27-3.54-.64-4.04-.5s-8.39,4.19-9.09,4.54c-1.09.55-6.31,2.77-6.56,3.03-.95.95,1.27,1.32.5,2.52-.15.24-4.69,2.39-5.05,2.52-1.12.42-2.79-.61-3.03-.5-2.04.87-5.7,4.38-6.06,4.54-1.1.5-5.12,1.04-7.07,2.02-1.04.52-.58,1.81-1.01,2.02-1.89.89-4.87-.25-6.56,1.51-1.07,1.12-.82,5.75-5.55,4.54-3.63-.93-.57-6.59.5-7.07,1.01-.45,3.85.57,4.04.5,4.37-1.53,8.64-5.73,12.62-7.57.18-.08,3.86.11,4.04,0,1.63-.97,1.35-2.93,1.51-3.03,1.13-.67,4.15-1.35,5.55-2.02,2.62-1.24,4.39-1.25,6.06-2.02,2.17-1,3.33-3.63,4.04-4.04.54-.31,3.86.09,4.04,0,.97-.5,5.78-2.78,6.06-3.03,1.18-1.06,2.41-5.07,4.04-5.55v.02Z"/>
                <path class="cls-30" d="M189.98,121.21c-6.44,3.98-15.4,12.91-13.63,20.95.14.62,6.71,10.16,7.32,10.35,1.18.37,2.2-.78,3.03-.5,9.7,3.24.72,10.26-3.79,4.29-.06-.08,1.02-.95,0-2.02-2.63-2.75-8.19-5.53-10.1-8.58-7.89-12.66,9.15-19.97,16.66-27,.13.52.44,2.41.5,2.52h0Z"/>
                <path class="cls-1" d="M335.35,153.52c-.04-.6-.56-.78-1.01-1.01,2.63-6.54,10.49-9.03,8.58-17.41-.58-2.57-10.57-14.01-14.64-13.38.83-1.3.62-1.3,1.01-2.52,17.86,9.95,28.98,20.5,6.06,34.32Z"/>
                <path class="cls-14" d="M168.53,157.56l32.05,17.41c-4.62,5.35-6.24,1.13-11.86.25l1.01-3.03c-3.46.64-13.79-8.45-14.64-8.58-1.27-.19-3.06,2.72-6.56,1.01-2.71-1.32-3.38-6.11,0-7.07h0Z"/>
                <path class="cls-14" d="M330.8,111.12c0-.45-.42-4.7-.5-5.05.94,1.58,2.49.73,3.79,1.51.42.26.02,1.64,1.01,2.02.49.19,4.21-.26,5.05,0,.58.18.49,2.69,2.02,4.04.21.18,3.5.75,3.79,1.77.35,1.25-1.92,3.36-3.28,3.28-.54-.03-8.58-4.62-9.34-5.3-.41-.37,1.2-3.07-2.52-2.27h-.02Z"/>
                <path class="cls-1" d="M354.02,123.23c3.02,2.26,18.78,11.53,11.36,14.13l.76,2.02c-1.33-.21-2.79.43-4.04-.5.5-4.68-1.15-3.76-2.52-6.31-.04-.07.97-.86.5-1.51-1.82-2.56-6.49-3.47-7.07-7.32.05-.03.01-.79,1.01-.5h0Z"/>
                <path class="cls-47" d="M157.17,150.99c-3.05-3.35-10.76-8.85-4.04-11.1.63-.21,2.45.23,2.78,0,.48-.33-.06-1.37.76-2.52.09,1.34,3.1,8.37,3.03,8.83-.06.36-3.32,2.18-2.52,4.8h-.01Z"/>
                <path class="cls-30" d="M156.66,137.37c-.81,1.16-.28,2.19-.76,2.52-.33.23-2.15-.21-2.78,0-2.73-3.1,8.43-16.46,10.35-16.15,4.51.71-2.81,6.6-3.28,7.32-1.33,2.05-2.1,4.28-3.53,6.31h0Z"/>
                <path class="cls-47" d="M188.97,107.08c.02,1.1.51,1.73.5,2.02v.5c-6.67,1.69-6.22,11.14-16.15,6.81,2.63-.83,3.84-5.56,5.3-6.31,2.29-1.17,4.4,2.86,8.33-.76.16-.15-1.26-3.5,2.02-2.27h0Z"/>
                <path class="cls-14" d="M366.14,139.38c1.05.17,2.1-.08,3.03.76,1.13,4.56-7.96,9.53-9.59,5.55-.27-.66,2.44-6.08,2.52-6.81,1.24.93,2.71.3,4.04.5h0Z"/>
                <path class="cls-30" d="M192.25,159.07c5.57-.79,5.34,6.83,2.02,7.57-2.69.29-4.7-1.48-6.31-3.28-.31-1.63,3.38-4.16,4.29-4.29Z"/>
                <path class="cls-14" d="M357.81,148.47c6.01-1.91,5.79,11.19-4.04,7.07-2.76-.83,3.6-6.93,4.04-7.07Z"/>
                <path class="cls-47" d="M169.03,118.18c8.69-2.21,3.68,8.49-2.52,6.56-4.13-1.29.53-6.05,2.52-6.56Z"/>
                <path class="cls-30" d="M228.09,187.84c5.99-1.61,9.14,5.7,4.04,6.56-2.27.38-6.98-2.32-6.31-4.8.51-.54,1.62-1.59,2.27-1.77h0Z"/>
                <path class="cls-14" d="M325,159.07c4.41-1.13,8.12,3.9,4.54,6.06-5.18,3.12-9.93-4.68-4.54-6.06Z"/>
                <path class="cls-30" d="M216.98,182.79c.83-.08,1.69.05,2.52,0,2.24,1.46,2.65,4.91.5,6.56-3.89.49-5.21-.29-6.81-3.79.03-1.43,2.67-2.67,3.79-2.78h0Z"/>
                <path class="cls-47" d="M157.17,150.99c3.37-5.14,11.84,3.76,7.32,5.55-4.77,1.89-5.5-3.55-7.32-5.55Z"/>
                <path class="cls-14" d="M354.02,123.23c-1-.29-.96.48-1.01.5-.55.33-2.45,1.55-2.78,1.51-.53-.06-8.99-5.93-4.54-7.57,3.6-1.39,6.33,4.06,8.33,5.55h0Z"/>
                <path class="cls-14" d="M334.34,152.51c.44.23.97.41,1.01,1.01.43,8.62-13.91,3.68-5.8-.5,1.66-.86,2.98-1.44,4.8-.5h-.01Z"/>
                <path class="cls-14" d="M262.41,192.89c1.5-.29,7.61.55,7.32,2.27-1.17,5.5-16.49-.5-7.32-2.27Z"/>
                <path class="cls-14" d="M206.89,177.75c.35-.04,3.14.74,3.28,1.26-3.4,6.41-8.92-.68-3.28-1.26Z"/>
              </g>
              <path class="cls-37" d="M287.4,70.74c-.76-.34-2.64-.51-3.53-1.01.04-.37-1.35-1.52.25-1.51l3.28,2.52h0Z"/>
              <path class="cls-25" d="M284.11,61.15c.22-.13,1.89-.09,2.27.25-.88,1.16-3.73.62-2.27-.25Z"/>
            </g>
          </g>
          <path class="cls-19" d="M321.21,126.77c1.88,1.52,4.66,3.12,5.55,5.55.17.47.63,5.8.5,6.31-.81,3.3-5.22,3.27-7.82,4.8-10.28,6.02-41.59,25.9-50.98,28.27-3.03.76-6.25.56-9.34.5.12-2-2.95-.41-3.53-1.26-.21-.3-.5-6.35-.5-7.32-.01-2.01-.43-4.07,1.51-5.05,2.89.39,4.16.43,7.07,0v4.8c.32.39,1.73.33,2.27.25,1.24-.18,21.69-11.14,21.45-12.37l-4.04-2.27c.35-.2,1.37-1.88,2.52-1.51,6.19,6.56,10.98-2.34,17.92-4.04,2.23-2.03-3.17-3.46-4.29-4.04,1.01-.59,2.01-1.42,3.03-2.02,3.39,8.18,11.78.07,16.15-2.78l-5.55-3.28c2.53-1.55,5.86-3.1,8.08-4.54h0Z"/>
          <path class="cls-7" d="M198.05,127.27c2.19,1.43,5.53,2.99,8.08,4.54l-5.05,3.28c5.11,1.55,11.07,9.09,15.65,2.78.83.49,2.11.98,3.03,1.51l-4.8,2.02.5,1.01c6.26,1.43,12.99,10.64,18.93,5.55.55.3,1.17.82,1.51,1.01-.67.12-3,1.86-3.03,2.27-.07,1.28,19.25,11.3,22.21,12.37,0,.97.3,7.02.5,7.32.58.85,3.65-.74,3.53,1.26-1.74-.03-7.58-.2-8.83-.5-3.1-.74-53.01-27.8-56.03-30.29-5.44-4.47-1.58-11.63,3.79-14.13h.01Z"/>
          <path class="cls-31" d="M283.36,148.97l4.04,2.27c.24,1.22-20.22,12.19-21.45,12.37-.54.08-1.95.14-2.27-.25v-4.8c5.82-.85,14.12-6.51,19.69-9.59h-.01Z"/>
          <path class="cls-27" d="M256.61,158.56c-1.95.98-1.53,3.03-1.51,5.05-2.96-1.06-22.28-11.09-22.21-12.37.02-.41,2.36-2.15,3.03-2.27,6.21,3.35,13.96,8.69,20.69,9.59Z"/>
          <path class="cls-31" d="M299.51,139.38c1.12.58,6.52,2.01,4.29,4.04-6.94,1.7-11.73,10.6-17.92,4.04-.08-.09.08-.4,0-.5,4.55-2.47,9.17-4.95,13.63-7.57h0Z"/>
          <path class="cls-27" d="M219.76,139.38c4.86,2.83,9.71,5.9,14.64,8.58-5.93,5.08-12.67-4.12-18.93-5.55l-.5-1.01,4.8-2.02h-.01Z"/>
          <path class="cls-27" d="M216.73,137.87c-4.58,6.31-10.54-1.22-15.65-2.78l5.05-3.28c3.44,2.1,7.11,4,10.6,6.06Z"/>
          <path class="cls-31" d="M302.54,137.37c3.49-2.05,7.16-3.95,10.6-6.06l5.55,3.28c-4.38,2.85-12.77,10.95-16.15,2.78Z"/>
        </g>
      </g>
    </g>
    <g>
      <path class="cls-37" d="M143.54,58.62c1.05,1.45,2.93,2.12,4.04,3.53-2.95,2.64-6.68,4.17-10.1,6.06-.73-2.79-3.85,1.01-4.54,2.52l-5.05-3.28,14.13-8.08c-.85-1.11-.72-.49-1.51-.25l1.51-3.03c.37,1.31.88,1.65,1.51,2.52h0Z"/>
      <path class="cls-10" d="M150.61,63.17c-4.24.85-5.88,2.19-9.59,4.54-1.01.64-2.48,1.64-3.79,1.51-.68.63.05,1.07.5,1.51,1.03,1,24.06,13.04,25.49,13.12l1.01,3.03c-5.22-.39-2.13-1.93-3.79-3.03l-25.24-12.62c-2.28-3.12,2.06-2.91,2.27-3.03,3.41-1.89,7.15-3.42,10.1-6.06.24-.21,1.43-.89,1.51-1.01l1.51,2.02.02.02Z"/>
      <path class="cls-10" d="M191.49,67.2c-.76,1.63-20.92,13.96-23.72,15.14-.42.18-2.3.95-2.52,1.01-3.17-2.92-7.83-5.29-11.61-7.57,3.89.75,9.6,5.99,13.38,5.55,3.43-.4,19.04-11.3,22.46-14.13.65.09,1.36-.06,2.02,0h-.01Z"/>
      <path class="cls-20" d="M167.77,82.35c2.6,4.28.01,4.81-3.53,4.54l-1.01-3.03c.95.29,1.39-.34,2.02-.5.22-.06,2.11-.83,2.52-1.01Z"/>
      <path class="cls-32" d="M193.51,48.53c.78.04.49.93.5,1.51-1.57.37-9.71,3.87-10.1,4.8-.18.42-1.2,8.67-1.01,9.09.15.33,5.87,3.19,6.56,3.28-3.42,2.83-19.04,13.73-22.46,14.13-3.77.44-9.48-4.8-13.38-5.55-4.26-2.58-8.63-5.07-12.62-8.08,3.71-2.36,5.35-3.7,9.59-4.54,1.16-.23,3.35-1.03,3.53-1.01,1.03.09,4.57,2.57,6.06,3.03-1.78,1.91,1.73,3.13-2.52,3.79,6.07,4.65,8.47,2.18,13.88-.25,2.65-1.19,4.38,1.41,5.3-4.54,4.19-2.17,7.57-3.35,5.8-9.09-2.83,1.44-11.7,7.17-14.39,7.07-.81-.03-11.76-6.06-14.64-7.07-1.2-.42-1.74-2.4-3.53-1.26-.56,1.05.56,4.56.5,4.8-.04.18-1.27,2.18-1.51,2.52-.09.12-1.28.8-1.51,1.01-1.11-1.41-2.99-2.08-4.04-3.53l5.55.76c-1.83-2.96,1.28-5.44-1.01-8.83,6.79,3.72,13.96,6.81,20.44,11.1l24.99-13.12.02-.02Z"/>
      <path class="cls-2" d="M141.02,67.71c3.99,3,8.36,5.5,12.62,8.08,3.78,2.28,8.44,4.65,11.61,7.57-.63.17-1.07.8-2.02.5-1.43-.08-24.46-12.12-25.49-13.12-.46-.44-1.18-.89-.5-1.51,1.31.13,2.77-.87,3.79-1.51h0Z"/>
      <path class="cls-41" d="M160.2,65.19c4.71,1.46,3.37,1.58,8.58,1.51,3.56-.05,4.89-.87,8.08-2.52-.92,5.95-2.65,3.35-5.3,4.54-5.41,2.43-7.82,4.91-13.88.25,4.26-.66.74-1.88,2.52-3.79h0Z"/>
      <g>
        <path class="cls-1" d="M194.02,50.04c.16,8.47-1.83,6.49-7.07,10.85l5.05,3.79c.22,1.09-.06,1.57-.5,2.52-.66-.06-1.37.09-2.02,0-.69-.09-6.41-2.95-6.56-3.28-.19-.42.83-8.66,1.01-9.09.39-.92,8.52-4.43,10.1-4.8h-.01Z"/>
        <path class="cls-33" d="M146.06,49.03c.91.48,1.75,1.37,2.02,1.51,2.29,3.4-.82,5.87,1.01,8.83l-5.55-.76c-.63-.87-1.15-1.21-1.51-2.52-.92-3.28-.02-5.47,0-8.58,1.49-.05,2.79.87,4.04,1.51h-.01Z"/>
        <path class="cls-1" d="M153.13,59.63c.04.25,1.25,1.84,1.01,2.52-.18-.02-2.38.78-3.53,1.01l-1.51-2.02c.24-.35,1.47-2.35,1.51-2.52l2.52,1.01h0Z"/>
        <path class="cls-24" d="M168.27,62.16l.5,4.54c-5.21.07-3.87-.06-8.58-1.51-1.48-.46-5.02-2.93-6.06-3.03.24-.69-.96-2.27-1.01-2.52-.12-.65.28-3.68.5-4.54,2.87,1,13.83,7.03,14.64,7.07h.01Z"/>
        <path class="cls-16" d="M176.85,64.18c-3.18,1.65-4.51,2.48-8.08,2.52l-.5-4.54c2.69.11,11.56-5.63,14.39-7.07,1.77,5.73-1.61,6.91-5.8,9.09h-.01Z"/>
        <path class="cls-14" d="M153.64,55.09c-.22.86-.62,3.89-.5,4.54l-2.52-1.01c.05-.23-1.07-3.74-.5-4.8,1.8-1.14,2.34.84,3.53,1.26h-.01Z"/>
        <g>
          <path class="cls-47" d="M186.44,37.42c.58.34,1.44,1.17,2.02,1.51,1.38,2.54,7.44,2.98,5.05,6.81-1.59,2.55-21.5,11.15-24.99,13.88-6.53-4.62-15.48-7.81-21.96-12.11-2.22-1.47-4.33-2.87-5.05-5.55,2.66-2.95,6.41-3.51,9.84-5.55,4.06-2.41,13.46-9.33,17.67-8.58.98.18,15.31,8.35,17.41,9.59h0Z"/>
          <path class="cls-3" d="M146.57,47.52l-.5,1.51c-1.25-.65-2.55-1.56-4.04-1.51,0-1.24-2.09-4.08-.5-5.55.72,2.69,2.83,4.08,5.05,5.55h-.01Z"/>
          <path class="cls-15" d="M193.51,48.53l-24.99,13.12c-6.49-4.29-13.65-7.39-20.44-11.1-.27-.15-1.11-1.04-2.02-1.51l.5-1.51c6.48,4.3,15.43,7.49,21.96,12.11,3.49-2.73,23.39-11.33,24.99-13.88,2.39-3.84-3.67-4.28-5.05-6.81,4.5,2.7,8.45,1.74,5.05,9.59h0Z"/>
          <path class="cls-37" d="M181.65,40.45c1.22-.21.15,1.38,0,1.51-2.87,2.52-10.85,4.71-14.13,7.57l-15.39-8.33c.5-1,13.86,7.38,15.39,7.32,1.01-.04,12.29-6.96,14.13-8.08h0Z"/>
          <path class="cls-13" d="M167.52,34.9c3.69.65,6.87,3.49,10.35,4.8-3.56-.34-7.41-2.9-10.35-4.8Z"/>
          <g>
            <path class="cls-13" d="M167.52,36.41c1.45-.06,6.28,3.02,5.8,5.3-1.82,4.84-12.95,3.99-12.11-.5.11-.62,5.64-4.77,6.31-4.8Z"/>
            <path class="cls-47" d="M167.52,37.42c3.25,0,7.46,5.8,1.01,7.07-8.88,1.74-6.03-7.06-1.01-7.07Z"/>
          </g>
        </g>
      </g>
    </g>
    <g>
      <path class="cls-1" d="M121.33,214.09c2.57-1.64,3.33-4.08,7.07-4.54,1.93,1.1,4.86,1.65,6.56,3.03,1.56,2.55.77,4.02-1.26,6.06l-22.21,13.12c-1.65-.32-2.34-1.24-3.03-1.51-7.13-2.85-9.19-4.72-15.14-8.58-2.92-1.89-7.97-3.22-9.34-6.56.39-2.82,4.68-3.67,7.07-5.05,5.51-3.18,10.87-6.11,17.41-6.56-3.06,3.35-8.14,3.63-9.84,7.82,0,1.96,11.59,8.85,12.37,8.83.6,0,9.12-5.28,10.35-6.06h0Z"/>
      <path class="cls-13" d="M123.85,206.52c-1.24-.54-5.01-2.33-5.8-2.52-1.89-.45-5.2,1.13-7.07-.5l1.77,3.03c-.6-.18-1.83-1.46-2.27-1.51-3.24-.39-8.77,3.8-10.85,6.31-.14,1.44,5.88,4.14,7.07,4.8.84.46,3.21,3.23,4.8,3.03.35-.04,4.73-3.44,5.8-4.04.96-.53,3.41-2.2,4.04-1.01-1.22.78-9.75,6.05-10.35,6.06-.78.01-12.37-6.88-12.37-8.83,1.7-4.2,6.79-4.47,9.84-7.82-6.54.45-11.9,3.38-17.41,6.56,1.44-3.16,7.29-3.95,9.84-5.55.3-.19,1.69-4.08,4.54-5.05,6.99-2.37,12.87,3.69,18.42,7.07v-.03Z"/>
      <path class="cls-25" d="M105.68,230.74c1.25.69,2.38,3.05,5.05,3.03l-.5,5.55c-5.13-.05-7.15-3.93-12.62-4.04.05-1.18.17-2.79-1.01-3.53l.5-5.55c2.72,1.63,5.77,3,8.58,4.54Z"/>
      <path class="cls-7" d="M135.97,220.14l-24.99,12.62-5.3-2.02c-2.81-1.54-5.86-2.91-8.58-4.54-4.14-2.48-13.81-6.18-13.12-11.1,1.37,3.34,6.41,4.67,9.34,6.56,5.96,3.86,8.02,5.73,15.14,8.58.69.28,1.38,1.19,3.03,1.51l22.21-13.12c2.03-2.03,2.82-3.51,1.26-6.06,3.79,3.05,1.18,3.75,1.01,7.57h0Z"/>
      <path class="cls-30" d="M123.85,206.52c2.21.96,2.93,2.12,4.54,3.03-3.74.46-4.5,2.9-7.07,4.54-.63-1.19-3.08.48-4.04,1.01-.74-.06-2.16-1.4-2.52-1.51l-1.26-1.51,5.3-1.01c.69.9.25,2.04,1.01,1.77,2.05-3.56-3.27-4.84-5.55-5.8-.27-.11-1.16-.4-1.51-.5l-1.77-3.03c1.87,1.63,5.18.05,7.07.5.79.19,4.57,1.99,5.8,2.52h0Z"/>
      <path class="cls-4" d="M124.86,228.22c-.61,3.38,1.59,2.37-1.51,5.05-2.34,2.02-10.24,6.09-13.12,6.06l.5-5.55c2.88-.03,10.47-6.85,14.13-5.55h0Z"/>
      <path class="cls-25" d="M135.97,221.66c-6.54,1.82-8.18,2.04-8.83,9.09l-.25-4.8c-1.83-.56-1.85,1.32-2.02,2.27-3.67-1.3-11.25,5.52-14.13,5.55-2.66.03-3.8-2.34-5.05-3.03l5.3,2.02,24.99-12.62c0,.19.14.51,0,1.51h0Z"/>
      <path class="cls-44" d="M89.78,228.22c.57-.19,4.62,2.55,3.03,3.53-1.89,1.16-5.39-2.75-3.03-3.53Z"/>
      <path class="cls-47" d="M114.77,213.58c.36.12,1.78,1.45,2.52,1.51-1.08.6-5.45,3.99-5.8,4.04-1.58.2-3.96-2.57-4.8-3.03,1.78-2.76,5.16-3.47,8.08-2.52h0Z"/>
      <g>
        <path class="cls-1" d="M112.75,206.52c.35.11,1.25.39,1.51.5,2.1,1.39,2.97,2,4.54,4.04l-5.3,1.01,1.26,1.51c-2.91-.94-6.3-.24-8.08,2.52-1.19-.66-7.21-3.36-7.07-4.8,2.09-2.51,7.61-6.7,10.85-6.31.45.05,1.68,1.33,2.27,1.51l.02.02Z"/>
        <path class="cls-2" d="M118.81,211.06c-1.57-2.04-2.45-2.65-4.54-4.04,2.29.96,7.6,2.25,5.55,5.8-.76.28-.32-.87-1.01-1.77h0Z"/>
        <path class="cls-13" d="M108.71,209.54c-.62.43-2.3.99-2.52,1.77-.03.1,1.6.36,1.01,1.77-6.66.84-1.51-2.07-.5-3.28.1-.12-1.16-.64-.76-1.26.17-.26,5.21-.85,6.06-1.51.08,1.11-2.18,1.75-3.28,2.52h0Z"/>
        <path class="cls-47" d="M107.2,213.08c.59-1.41-1.04-1.67-1.01-1.77.22-.78,1.91-1.34,2.52-1.77,1.16,2.08,1.32,3.18-1.51,3.53h0Z"/>
        <path class="cls-37" d="M115.02,209.54c.5-.03,1.01.02,1.51,0,.95.49-5.03,2.85-5.8,2.27.41-1.21,3.45-2.23,4.29-2.27Z"/>
      </g>
    </g>
    <g>
      <path class="cls-7" d="M456.49,169.67l4.04,4.54c-1.7.83-4.42,2.65-5.55,4.29.05.74,8.85,6.25,10.1,6.81.84.38,1.69.74,2.27,1.51,2.14-3.99,15.66-5.89,9.84-10.1-.89-.64-2.54-1.54-3.53-2.02-.13-1.98,1.69.31,2.27,0,.35-.18,1.76-3.39,3.28-3.03,3.39,1.84,7.53,3.23,10.6,5.55.31.23.77.16,1.51,1.01,1.52,1.73,2.21,3.02,1.51,5.8-.79,3.14-4.23,2.56-6.31,3.79-3.82,2.25-18.24,11.05-21.7,10.6-2.75-2.17-23.71-12.13-24.48-13.38-.68-1.1-.8-5.4.25-6.81.57-.77,13.83-7.49,15.9-8.58v.02Z"/>
      <path class="cls-7" d="M479.2,171.69c-1.52-.36-2.93,2.85-3.28,3.03-.58.31-2.41-1.98-2.27,0-5.88-2.85-7.16-3.43-13.12-.5l-4.04-4.54c1.84-.96,6.51-4.79,8.33-5.05,3.86-.54,10.77,5.1,14.39,7.07h0Z"/>
      <path class="cls-7" d="M491.82,192.38c0,6.69-7.14,2.78-8.08,7.82.18.43,1.02.2,1.01.25-.03.16.04.35,0,.5-.08.32-.01.57-.5.5-1.93.13-4.86.08-4.54-2.52,1.05-1.55.28-4.26.5-6.06,3.78-1.85,7.47-3.9,11.36-5.55.57.45.13,4.01.25,5.05h0Z"/>
      <path class="cls-40" d="M479.71,198.95c-.3.45-8.82,5.38-9.34,5.55-1.59.54-2.82.02-4.29,0v-4.54c1.99-.09,11.69-5.87,14.13-7.07-.23,1.79.54,4.5-.5,6.06h0Z"/>
      <path class="cls-44" d="M466.08,199.95v4.04c-4.8-1.59-16.25-3.99-12.62-10.1,2.11,1.14,10.99,6.13,12.62,6.06Z"/>
      <path class="cls-1" d="M441.09,187.34c5.76,1.47,8.94,3.67,7.07,10.1-5.48-3.3-8.93-.64-7.07-10.1Z"/>
      <path class="cls-30" d="M465.07,185.32c.07-.76-2.1-2.73-2.52-3.03,4.98.51,6.25-2.3,9.34-3.53.5-.2,2.33-.07,3.79-.5,1.02-.3,1.79.61,1.51-1.51,5.82,4.21-7.71,6.1-9.84,10.1-.58-.77-1.43-1.13-2.27-1.51v-.02Z"/>
      <g>
        <path class="cls-13" d="M473.65,174.72c1,.48,2.64,1.38,3.53,2.02.27,2.13-.49,1.21-1.51,1.51-5.44-6.98-12.8-5.59-19.18-.25.93,2.49,4.22,3.02,6.06,4.29.43.3,2.59,2.27,2.52,3.03-1.24-.56-10.05-6.07-10.1-6.81,1.13-1.64,3.85-3.46,5.55-4.29,5.96-2.93,7.25-2.34,13.12.5h0Z"/>
        <path class="cls-1" d="M475.67,178.25c-1.46.43-3.29.31-3.79.5-3.08,1.23-4.35,4.05-9.34,3.53-1.84-1.27-5.13-1.8-6.06-4.29,6.39-5.33,13.74-6.73,19.18.25h.01Z"/>
        <path class="cls-13" d="M466.84,175.22c1.94-.25,5.5,2.36,7.82,2.27-.73.26-4.57.85-4.8.76-.53-.22-.39-4.13-5.3-.25l1.26,1.26h-3.53c-.35-1.16,4.24-4,4.54-4.04h.01Z"/>
      </g>
    </g>
    <g>
      <path class="cls-7" d="M37.54,172.19c.5,2.02,2.07,2.97,3.03,4.29.03.04-.7.52-.5.76-1.16.3.41.91.5,1.01,1.37,1.39,10.07,7.55,11.36,7.57.96.02,10.54-5.98,11.86-7.07,2.11-1.74,2.84-3.7,5.05-5.05,4.1,2.44,13.31,4.29,9.09,11.36-1.32,2.21-4.08,1.15-4.29,1.26-7.14,3.71-13.97,8.5-21.2,12.11l-25.74-12.62c-1.06-2.23-1.66-4.17-.76-6.56.11-.29.35-.8.5-1.01,1.37-1.81,8.75-4.68,11.1-6.06h0Z"/>
      <path class="cls-7" d="M68.84,173.71c-2.21,1.35-2.94,3.31-5.05,5.05,2.85-2.87-8.68-8.51-9.84-8.58-3.42-.22-11.78,6.51-13.38,8.08.31-.97-.4-.88-.5-1.01-.2-.24.53-.72.5-.76-.96-1.32-2.53-2.27-3.03-4.29,3.9-2.28,11.55-8.31,15.9-7.57,1.31.22,13.17,7.76,15.39,9.09h.01Z"/>
      <path class="cls-28" d="M65.81,198.44c-5.49,2.57-7.36,5.64-13.63,5.55-.66-1.05.47-3.09,0-4.04,4.7-2.48,9.37-5.21,14.13-7.57.58,1.65-.58,4.93-.5,6.06h0Z"/>
      <path class="cls-28" d="M52.18,199.95c.47.95-.66,2.99,0,4.04-3.19-.04-8.14-1.3-10.6-3.53s-1.33-3.31-1.51-6.56c1.59.8,11.81,5.45,12.11,6.06h0Z"/>
      <path class="cls-29" d="M27.19,187.34c4.79,2.43,10.25,2.74,8.08,9.59-7.04-.73-10.25-1.48-8.08-9.59Z"/>
      <path class="cls-3" d="M72.37,195.92c.43-1.61-.31-4.73,0-6.56,1.78-.72,3.67-1.48,5.3-2.52.96,4.03-.08,10.05-5.3,9.09h0Z"/>
      <path class="cls-37" d="M40.57,178.25c-.1-.1-1.66-.71-.5-1.01.11.13.81.04.5,1.01Z"/>
      <g>
        <path class="cls-42" d="M63.79,178.75c-1.32,1.08-10.9,7.08-11.86,7.07-1.28-.02-9.99-6.18-11.36-7.57,1.6-1.56,9.96-8.3,13.38-8.08,1.17.08,12.7,5.71,9.84,8.58h0Z"/>
        <path class="cls-47" d="M60.76,179.26c-.5.72-7.83,5.5-8.33,5.55-1.97.22-5.39-3.45-6.81-4.54,2.49-1.82,5.61-.3,7.82-.5.91-.09,1.64-1.95,2.02-2.02.34-.06,4.26,1.69,5.3,1.51Z"/>
        <g>
          <path class="cls-7" d="M60.76,179.26c-1.04.17-4.96-1.57-5.3-1.51-.38.07-1.11,1.93-2.02,2.02-2.22.21-5.34-1.31-7.82.5-.24-.18-3.47-1.29-3.53-1.77,2.19-2.45,3.66-3.13,6.81-3.28l-1.01-1.51c5.17-4.77,16.24.65,12.87,5.55h0Z"/>
          <path class="cls-2" d="M54.45,172.7c.07.01.9.71,1.26.76-7.48,2.84-2.53,3.5-2.52,4.04.03,1.41-5.43.87-6.56,1.01,3.3-1.26,4.67-6.3,7.82-5.8h0Z"/>
          <path class="cls-13" d="M56.97,174.72c1.6-.1,2.46.61,3.79,1.26-2.59.11-3.53-.52-5.8,1.26-2.18-.44,1.79-2.51,2.02-2.52h-.01Z"/>
        </g>
      </g>
    </g>
  </g>
</svg>